<svg xmlns="http://www.w3.org/2000/svg" xmlns:xlink="http://www.w3.org/1999/xlink" width="2550" height="3300"><g><svg xmlns="http://www.w3.org/2000/svg" xmlns:xlink="http://www.w3.org/1999/xlink" width="2550" height="3300"/><svg xmlns="http://www.w3.org/2000/svg" width="2550" height="3300" version="1.0" viewBox="0 0 2550 3300"><g fill="#fbfbfb" transform="matrix(.9659 0 0 -.96774 0 3300)"><path d="M0 1705V0h2640v3410H0V1705z"/></g></svg><svg xmlns="http://www.w3.org/2000/svg" width="2550" height="3300" version="1.0" viewBox="0 0 2550 3300"><g fill="#cbd2de" transform="matrix(.9659 0 0 -.96774 0 3300)"><path d="M310 1580V60h2330v920H1300v1900h1340v220H310V1580zm1890-744c0-3-5-8-12-12s-8-3-4 4c7 12 16 16 16 8zm-445-16c3-5 4-10 1-10s-8 5-11 10c-3 6-4 10-1 10s8-4 11-10zm172-22c-3-7-5-2-5 12s2 19 5 13c2-7 2-19 0-25zm-120 0c-3-8-6-5-6 6-1 11 2 17 5 13 3-3 4-12 1-19zm170 0c-3-8-6-5-6 6-1 11 2 17 5 13 3-3 4-12 1-19zm87-11c7-6 6-7-4-4-8 2-16 12-17 23-2 13-1 15 4 4 3-8 11-19 17-23zm33 1c-3-7-5-2-5 12s2 19 5 13c2-7 2-19 0-25zm210 10c-3-8-6-5-6 6-1 11 2 17 5 13 3-3 4-12 1-19zm190 0c-3-8-6-5-6 6-1 11 2 17 5 13 3-3 4-12 1-19zm70 5c-4-3-7 0-7 7s3 10 7 7c3-4 3-10 0-14zm20 0c-4-3-7 0-7 7s3 10 7 7c3-4 3-10 0-14zm-683-9c3-8 2-12-4-9s-10 10-10 16c0 14 7 11 14-7zm251-13c-6-5-25 10-25 20 0 5 6 4 14-3s12-15 11-17zm262 12c-4-3-7 0-7 7s3 10 7 7c3-4 3-10 0-14zm-637-3c0-5-2-10-4-10-3 0-8 5-11 10-3 6-1 10 4 10 6 0 11-4 11-10zm577-12c-3-8-6-5-6 6-1 11 2 17 5 13 3-3 4-12 1-19zm-590-100c-3-8-6-5-6 6-1 11 2 17 5 13 3-3 4-12 1-19zm130 0c-3-8-6-5-6 6-1 11 2 17 5 13 3-3 4-12 1-19zm-423 1998c-3-8-4-29-2-47 4-38 28-53 28-18v23l15-21c11-16 24-21 52-20 33 2 39 6 44 32 7 30 10 21 13-27 1-10 5-18 9-18h17c5 0 12 16 16 35 6 35 24 39 24 5 0-23 20-37 30-20 5 9 9 9 14 1 13-20 25-12 35 22 6 21 10 25 10 12 2-43 43-59 61-25s-3 59-50 58c-23 0-40-5-40-12s-3-7-8-1c-4 6-24 11-45 13-31 2-39-2-47-20l-9-23v22c-1 19-6 22-43 20-39-2-43-5-48-32-6-29-6-29-14-7-5 14-3 29 5 38 6 8 9 18 5 22s-16-4-27-17c-19-23-19-23-19-2 0 24-18 28-26 7zm113-33c-4-3-10-3-14 0-3 4 0 7 7 7s10-3 7-7zm229-20c-10-10-19 5-10 18 6 11 8 11 12 0 2-7 1-15-2-18zm134 57c0-5-7-10-15-10s-15-5-15-10c0-6-7-6-19 1-28 18-46 6-45-32 1-39 24-53 24-15 0 32 22 34 35 4 7-15 19-23 35-23 23 0 25 4 28 48 2 37 0 47-12 47-9 0-16-4-16-10zm-4-57c-10-10-19 5-10 18 6 11 8 11 12 0 2-7 1-15-2-18zm83 62c0-3-1-24-1-47-1-37 2-43 21-46 12-2 29 2 37 8 21 18 18 67-5 80-21 10-50 14-52 5zm51-45c0-11-7-20-15-20s-15 9-15 20 7 20 15 20 15-9 15-20zm30-1c0-36 4-49 13-47 18 7 19 98 1 98-10 0-14-14-14-51zm47 44c-11-10-8-93 3-93 6 0 10 14 10 30 0 17 5 30 10 30 6 0 10 9 10 20 0 19-20 27-33 13zm50 0c-11-10-8-93 3-93 6 0 10 14 10 30 0 17 5 30 10 30 6 0 10 9 10 20 0 19-20 27-33 13zm43-43c0-27 5-50 10-50 6 0 10 23 10 50 0 28-4 50-10 50-5 0-10-22-10-50zm178 45c-10-10 8-89 21-93 10-3 12 1 8 19-4 13-7 36-7 52 0 25-9 34-22 22zm199-2c-11-10-8-93 3-93 6 0 10 23 10 50 0 51-1 55-13 43zm-155-44c2-36 7-44 22-44 11 0 21 6 24 13 2 6-3 12-12 12s-16 6-16 13c0 8 7 14 15 14 16 0 29-32 23-58-2-8 4-14 12-14 9 0 21 18 30 42 14 42 7 71-11 43-6-10-11-12-16-4-5 6-15 11-23 11s-23 4-33 8c-16 7-18 3-15-36zm-180 19c-16-16-15-43 3-58s45-6 45 14c0 10-6 13-15 10-9-4-15 0-15 10s5 13 16 9c12-4 15-2 12 8-6 19-30 23-46 7zm60-25c3-34 6-38 31-39s27 2 27 37c0 22-4 39-10 39-5 0-10-11-10-25s-4-25-10-25c-5 0-10 11-10 25s-5 25-11 25-9-16-7-37zm-816-101c-3-5-3-17-1-28 2-10 4-27 4-36 1-28 21-21 21 7 0 14 4 25 8 25 5 0 8-10 8-21-1-12 5-24 12-26 8-3 12 6 12 27 0 23-5 33-20 37-11 3-20 9-20 14 0 11-17 12-24 1zm208-5c-3-9-15-12-34-9-29 4-30 2-30-32 0-25 4-36 15-36 9 0 15 9 15 25 0 29 25 25 33-6 3-11 14-19 26-19 23 0 29 25 9 34-10 5-10 7 0 12 17 8 15 17-8 32-17 10-21 10-26-1zm62-3c-9-23-8-24 19-24 18 0 25 5 25 20 0 24-35 28-44 4zm-329-11c-3-4-5-21-5-36 0-24 4-28 27-25 22 2 26 8 26 33 0 23-5 31-22 33-11 2-23 0-26-5zm137-7c-11-29 1-51 29-54 27-3 28-1 25 30-2 25-8 34-26 36-13 2-24-3-28-12zm36-21c0-8-4-15-10-15-5 0-10 7-10 15s5 15 10 15c6 0 10-7 10-15zm-167-112c-18-7-16-23 5-39 16-13 16-14 0-8-10 3-18 1-18-5s9-11 20-11c23 0 26 19 8 39-10 11-10 13 0 7 6-4 12-3 12 3 0 13-12 19-27 14zm44 0c-4-3-7-19-7-35 0-25 3-28 30-26 17 1 30 6 30 11s6 4 13-2c11-9 14-5 15 18 0 17-6 32-13 35-15 6-29-10-30-33 0-17-25-28-25-12 0 6 6 11 13 12 6 0 3 4-8 9-18 8-18 9-2 9 10 1 15 6 12 11-7 12-19 13-28 3zm70-20c-4-3-10-3-14 0-3 4 0 7 7 7s10-3 7-7zm29 20c-3-4-6-19-6-35 0-27 1-27 20-11 11 10 20 23 20 29 0 14-25 26-34 17zm24-17c0-3-4-8-10-11-5-3-10-1-10 4 0 6 5 11 10 11 6 0 10-2 10-4zm46 13c-14-40-11-54 13-57 21-3 23-1 17 25-9 35-24 51-30 32zm120 4c-3-3-6-18-6-32 0-19-3-22-9-12-5 8-6 21-3 30 5 14 3 14-10 3-13-10-17-10-21 0-3 7-6-3-6-22-1-26 2-31 9-20 8 12 12 13 19 2 14-22 65-11 69 15 3 22-29 49-42 36zm34-34c0-5-4-9-10-9-5 0-10 7-10 16 0 8 5 12 10 9 6-3 10-10 10-16zm599 24c-12-15-12-16 5-10 18 7 18 6 2-18-15-23-15-25 1-25 13 0 19 9 20 30 3 36-10 46-28 23zm53 5c-17-17-15-47 4-55 9-3 20 0 25 8 12 18 11 22-4 42-10 14-15 15-25 5zm14-35c-10-10-19 5-10 18 6 11 8 11 12 0 2-7 1-15-2-18zm-516 27c-8-5-25-7-37-3-16 3-23 1-23-8 0-11-3-11-10 1-8 13-10 12-10-2 0-10-4-18-9-18s-12 8-14 18c-3 11-5 8-6-9-1-21 4-28 26-32 15-3 35-2 43 2s42 6 76 5l60-2-4 29c-3 20-8 27-16 20-6-4-20-5-31 0-26 10-28 10-45-1zm-43-32c-3-8-6-5-6 6-1 11 2 17 5 13 3-3 4-12 1-19zm50 0c-3-8-6-5-6 6-1 11 2 17 5 13 3-3 4-12 1-19zm159 35c-4-4-19-7-34-8-20 0-27-5-27-20 0-17 7-20 40-20 36 0 40 3 43 28 3 26-7 35-22 20zm1-35c-3-8-6-5-6 6-1 11 2 17 5 13 3-3 4-12 1-19zm93 14c0-27 3-29 40-29 22 0 40 5 40 10 0 7 4 7 12-1 19-19 36-14 41 11l4 22 2-22c0-13 5-23 9-23s7 12 6 28c0 15-4 26-7 25-4-2-11-3-17-3-5 0-10-7-10-15s-5-15-11-15c-5 0-8 4-4 9 3 5 1 12-5 16-5 3-10 0-10-7 0-10-2-10-9 1-5 8-16 11-26 7-9-3-25-1-36 4-17 9-19 7-19-18zm25-1c3-5 1-12-5-16-5-3-10 1-10 9 0 18 6 21 15 7zm42-13c-3-8-6-5-6 6-1 11 2 17 5 13 3-3 4-12 1-19zm233 12c0-36 7-38 20-7 9 22 9 22 10-3 0-20 2-22 10-10 6 10 10 11 10 3 0-7 7-13 15-13s15 5 15 10c0 6-4 10-10 10-5 0-10 5-10 11 0 5 5 7 10 4 6-3 10-1 10 4 0 6-7 11-15 11s-15-5-15-11-7-3-16 5c-23 24-34 19-34-14zm-343 14c-16-16-7-44 14-44 15 0 20 5 17 22-3 22-19 33-31 22zm-107-529c0-11 11-15 40-15h40l-35-70c-27-53-32-70-20-70 15 0 85 127 85 155 0 12-12 15-55 15-42 0-55-3-55-15zm-320-145c-12-8-13-16-2-57 7-26 14-49 16-50 2-2 29 6 60 18 40 16 55 26 51 36-3 8-8 26-11 39-5 21-12 24-53 24-25 0-53-4-61-10zm290-119c0-29 0-29 66-30 56-1 65 2 60 15-3 9-2 12 5 9 5-4 7-15 4-26-9-29 14-23 25 7 15 38 14 39-49 40-50 1-60-1-64-17-3-11-11-19-19-19-10 0-9 3 2 11 12 9 13 12 1 16-11 5-11 7 0 14 10 6 8 9-8 9-19 0-23-6-23-29zm-608-295c3-31 4-31 61-32 32-1 57 3 57 9 0 5 6 4 14-2 12-10 15-8 19 11l4 23 2-22c1-28 6-28 33-4 12 12 18 26 15 35-7 19-47 22-47 4 0-10-2-10-8-1s-33 13-81 12l-72-1 3-32zm45-3c-4-3-7 0-7 7s3 10 7 7c3-4 3-10 0-14zm90 10c-4-3-10-3-14 0-3 4 0 7 7 7s10-3 7-7zm-40-19c-3-3-12-4-19-1-8 3-5 6 6 6 11 1 17-2 13-5zm373 12c0-30 3-34 28-34 15 0 33 5 40 10 8 7 12 7 12-1 0-19 43-5 51 17 10 26 12 24-28 27-19 1-33-3-33-9s-4-5-9 3-16 11-25 8c-9-4-16-2-16 3 0 6-4 10-10 10-5 0-10-15-10-34zm-226 9c-8-19 2-45 16-45 6 0 14 10 19 22l8 22 5-22c7-26 28-29 28-4 1 16 1 16 11 0 5-10 16-18 24-18 7 0 16 8 18 18 4 16 5 16 6 0 1-22 21-24 21-3 0 20 17 19 28-1 13-23 32-8 31 24 0 15-3 21-6 14-2-6-10-9-16-5-21 13-57 14-57 2 0-8-4-8-12-2-19 14-58 14-58 0 0-8-3-8-8-2-12 16-52 16-58 0zm-240-200c-13-33 3-43 61-40 32 1 61 8 65 15 5 9 9 8 13-3 8-21 69-10 65 12-3 13-17 16-85 16-45 0-85 3-89 8-12 11-24 8-30-8zm163-22c-4-3-10-3-14 0-3 4 0 7 7 7s10-3 7-7zm63 5c0-20 20-25 20-5 1 8 4 7 9-3 7-11 27-15 77-15 61 0 67 2 70 22s0 21-86 19c-79-1-90-3-90-18z"/></g></svg><svg xmlns="http://www.w3.org/2000/svg" width="2550" height="3300" version="1.0" viewBox="0 0 2550 3300"><g fill="#ebcd4b" transform="matrix(.9659 0 0 -.96774 0 3300)"><path d="M310 1585V70h2330v450l-1 450H1300v758c0 416-1 846-3 955l-2 197h1345v220H310V1585zm1441-775c-4-3-11-12-14-20-3-9-6-5-6 11-1 30 9 44 20 27 4-7 4-15 0-18zm29-2c0-21-3-29-10-22-5 5-7 19-4 32 9 31 14 27 14-10zm150 2c0-20-5-30-15-30-24 0-31 31-10 46 25 18 25 18 25-16zm283 24c8-8-3-34-14-34-4 0-5 7-2 17 4 11 3 14-5 9-7-4-12-2-12 3 0 12 23 15 33 5zm68-26c-3-24-6-27-9-13-2 11-9 26-14 33-8 9-5 12 9 12 16 0 19-5 14-32zm159 22c0-5-4-10-10-10-5 0-10-6-10-14s-4-17-10-21c-5-3-5 7 1 25 10 28 29 42 29 20zm31-31c-9-23-10-22-10 11-1 23 2 31 9 24s7-19 1-35zm150 22c-6-10-8-21-5-24s1-8-5-12c-12-7-16 37-4 48 14 14 23 6 14-12zm-800-18c-11-5-11-7 0-14s10-9-3-9c-11 0-18 7-18 18 0 25 11 35 24 21 8-8 7-13-3-16zm50 0c-11-5-11-7 0-14s10-9-3-9c-23 0-32 18-17 36 9 11 15 12 23 3 8-8 7-13-3-16zm158-6c-1-17-2-18-6-4-2 9-8 17-13 17s-11-8-13-17c-4-14-5-13-6 4-1 21 16 35 32 26 4-2 6-14 6-26zm51 8c0-19-20-29-32-17-15 15-2 43 17 36 8-3 15-12 15-19zm90 4c0-5-8-9-17-9-15 0-16-2-3-10 9-6 10-10 3-10-16 0-26 18-19 35 5 15 36 10 36-6zm396 12c8 7 14 6 19-2 4-6 2-15-5-19-10-6-9-9 1-13s8-6-4-6c-10-1-20 6-23 14-8 21-24 19-25-2 0-11-2-13-6-5-3 7-2 20 1 29 5 12 10 13 18 5s15-8 24-1zm-589-33c-3-7-5-2-5 12s2 19 5 13c2-7 2-19 0-25zm137 24c-6-4-14-14-17-22-4-10-6-8-6 8-1 15 5 22 17 22 10 0 13-3 6-8zm210 0c-6-4-14-14-17-22-4-10-6-8-6 8-1 15 5 22 17 22 10 0 13-3 6-8zm36-3c0 8 3 12 6 8 3-3 3-15-1-28-6-17-9-19-16-8-5 8-9 21-9 29 0 13 1 13 10 0 8-12 10-12 10-1zm137-21c-3-7-5-2-5 12s2 19 5 13c2-7 2-19 0-25zm-47 6c0-8-4-12-10-9-5 3-10 10-10 16 0 5 5 9 10 9 6 0 10-7 10-16zm-680-113c0-10-9-21-20-24-16-4-20 0-20 18 0 22 17 37 33 28 4-2 7-12 7-22zm29-14c1-5-3-5-9-2-5 3-10 16-9 28 0 21 1 21 9 2 5-11 9-24 9-28zm51 12c0-10-6-19-13-19-22 0-27 11-16 32 12 22 29 15 29-13zm49-2c-1-20-2-20-9 3l-7 25-11-25c-10-23-11-24-11-3-1 21 16 35 32 26 4-2 7-14 6-26zm7 134c-4-7-5-15-2-18 9-9 19 4 14 18-4 11-6 11-12 0zm144-5c0-9 5-16 10-16 6 0 10 4 10 9 0 6-4 13-10 16-5 3-10-1-10-9zm-304-115c-4-7-5-15-2-18 9-9 19 4 14 18-4 11-6 11-12 0zm77-18c4-3 10-3 14 0 3 4 0 7-7 7s-10-3-7-7zm117 1997c-13-10-29-15-35-11-5 5-18 8-27 8-14 0-18-9-18-34 0-18 5-33 10-33 6 0 10 11 10 25 0 18 4 23 15 19 8-4 15-12 15-19 0-21 26-36 46-28 16 7 18 15 14 50l-5 42-25-19zm10-42c0-16-3-19-11-11-6 6-8 16-5 22 11 17 16 13 16-11zm162 17c-1-25 2-45 8-45 5 0 10 20 10 45s-4 45-8 45c-5 0-10-20-10-45zm45 38c-11-10-8-83 3-83 6 0 10 11 10 25s5 25 10 25c6 0 10 9 10 20 0 19-20 27-33 13zm50 0c-11-10-8-83 3-83 6 0 10 11 10 25s5 25 10 25c6 0 10 9 10 20 0 19-20 27-33 13zm45-38c-1-25 2-45 8-45 5 0 10 20 10 45s-4 45-8 45c-5 0-10-20-10-45zm178 1c0-31 4-46 13-46s11 12 9 40c-6 56-22 61-22 6zm-950-6c0-38 20-60 20-22 1 16 1 16 14 0 19-26 21-23 21 22 0 43-8 51-24 23-10-17-10-17-11 0 0 9-4 17-10 17-5 0-10-18-10-40zm550 0c0-41 1-41 33-38 29 3 32 6 32 38s-3 35-32 38c-32 3-33 3-33-38zm50-1c0-10-7-19-15-19-9 0-15 9-15 25 0 18 4 23 15 19 8-4 15-15 15-25zm390 2c0-46 15-60 38-37 15 15 15 16-1 16-20 0-23 26-4 33 9 4 8 8-3 16-25 18-30 13-30-28zm157 32c-11-10-8-73 3-73 6 0 10 18 10 40 0 41-2 45-13 33zm-1064-10c-17-6-16-48 1-62 31-26 60 21 33 57-10 13-14 13-34 5zm24-20c-4-3-10-3-14 0-3 4 0 7 7 7s10-3 7-7zm0-30c-4-3-10-3-14 0-3 4 0 7 7 7s10-3 7-7zm35 13c2-29 8-46 16-46 16 0 34 47 29 74-3 20-4 19-15-4-7-17-11-20-11-8-1 9-6 20-11 23-7 4-9-10-8-39zm67 39c-3-3-4-18-1-35 4-30 26-41 35-17 4 10 6 10 6 0 1-18 28-16 35 3 3 9 6 25 6 37-1 22-1 22-15 3-13-17-15-18-15-3 0 20-16 23-23 5-4-10-7-10-14 0-5 7-12 10-14 7zm103-7c-27-27-2-75 32-62 21 8 21 60 0 68-20 8-18 8-32-6zm28-30c0-16-3-19-11-11-6 6-8 16-5 22 11 17 16 13 16-11zm472 30c-27-27 1-73 36-61 19 7 14 24-5 21-11-2-18 3-18 12s7 14 18 12c21-4 23 14 1 22-20 8-18 8-32-6zm66 6c-12-11-10-48 3-61 6-6 19-8 30-6 14 4 19 14 19 39 0 19-4 34-10 34-5 0-10-11-10-24 0-37-18-41-22-5-2 17-6 27-10 23zm167-21c5-16 8-36 9-45 1-32 25-19 35 20 13 46 13 52 1 52-5 0-10-7-10-15s-4-15-10-15c-5 0-10 7-10 15s-5 15-11 15c-7 0-9-9-4-27zm-985-148c0-25 5-45 10-45 6 0 10 11 10 25s5 25 10 25c6 0 10-11 10-25s5-25 10-25c6 0 10 14 10 31 0 22-5 32-20 36-11 3-20 9-20 14s-4 9-10 9c-5 0-10-20-10-45zm265 27c-8-21-7-22 18-18 29 4 36 35 8 33-11-1-23-7-26-15zm-60-24c2-18 3-36 4-40 2-15 41-8 41 8 0 8-4 12-10 9-5-3-10 0-10 9 0 8 6 17 13 19 9 4 8 8-3 16-27 19-38 12-35-21zm-271 10c-4-6 1-17 10-24 16-12 16-13-1-17s-17-4 0-12c20-8 47 0 47 15 0 6-10 15-22 20-18 7-19 9-5 9 9 1 17 6 17 11 0 14-37 13-46-2zm140-2c-11-29 0-51 26-51 21 0 25 5 25 30 0 24-5 31-23 33-13 2-24-3-28-12zm36-21c0-8-4-15-10-15-5 0-10 7-10 15s5 15 10 15c6 0 10-7 10-15zm40 1c0-20 5-36 10-36 6 0 10 11 10 25 0 18 4 23 16 18 12-4 15-2 12 8-2 8-14 15-26 17-19 3-22-1-22-32zm-215-126c-3-6 1-13 9-16 9-3 16-11 16-16 0-6-8-7-17-3-15 5-16 4-5-6 10-11 14-11 25 0 10 10 8 15-6 26-18 13-18 13 0 18 15 4 16 5 1 6-9 0-20-4-23-9zm47-17c2-14 10-28 18-30 13-4 13-3 0 6-13 10-13 12 0 21s13 10 0 10-13 1 0 10c13 8 12 10-3 10-14 0-18-6-15-27zm49 0c1-23 2-24 6-5 2 12 9 22 15 22 5 0 8-7 5-15-4-8-2-17 2-19 5-3 8 4 7 17-1 12-9 23-18 25-14 3-18-3-17-25zm49 2c0-14 4-24 10-20 5 3 7 12 3 20-6 17 12 21 20 5 3-6 4-5 3 2s-10 14-19 16c-12 3-17-4-17-23zm77 18c-6-13-3-38 6-40 16-6 27-2 27 8 0 8-5 8-15-1-9-8-15-9-15-2 0 6 5 14 10 17 6 3 10 10 10 16 0 11-17 12-23 2zm65-18c0-16 2-24 5-17 3 8 9 10 16 3 9-6 12-2 12 14s-3 20-12 14c-7-7-13-5-16 3-3 7-5 0-5-17zm54 16c-4-5 3-7 14-4 14 4 20 0 20-10 0-22-20-32-31-16-6 9-9 10-9 2 0-20 21-26 37-10 9 9 13 23 10 31-7 17-32 22-41 7zm447-15c1-17 9-31 17-33 10-3 11-2 4 4-7 4-14 19-17 33-4 22-5 21-4-4zm197 14c12-7 12-12 2-22-17-17-15-28 6-28 13 0 14 2 3 9-9 6-10 11-2 15 17 11 13 36-6 36-15 0-16-2-3-10zm40 6c0-2 7-7 16-10 8-3 12-2 9 4-6 10-25 14-25 6zm-490-16c0-7 3-10 7-7 3 4 3 10 0 14-4 3-7 0-7-7zm38-12c4-16 2-19-8-13-9 5-11 4-6-3 4-7 11-12 17-12 12 0 12 37 0 44-5 4-7-4-3-16zm27 12c3-5 8-10 11-10 2 0 4 5 4 10 0 6-5 10-11 10-5 0-7-4-4-10zm29-5c-7-17 3-35 19-35 8 0 7 3-2 9-8 5-11 16-8 25 4 9 4 16 1 16-2 0-7-7-10-15zm66 5c0-7 3-10 7-7 3 4 3 10 0 14-4 3-7 0-7-7zm58 3c20-8 15-36-5-28-15 5-16 4-5-6 9-10 15-10 23-2 14 14 5 43-13 42-10 0-10-2 0-6zm88-1c-3-5 1-9 9-9s12 4 9 9c-3 4-7 8-9 8s-6-4-9-8zm86-12c0-14 2-19 5-12 2 6 2 18 0 25-3 6-5 1-5-13zm163 11c-3-6 0-8 9-5 8 3 16-1 19-10 4-14 5-14 3 0-1 20-21 30-31 15zm49-6c-7-17 3-35 19-34 9 0 9 2 0 6-7 2-13 11-13 18s6 16 13 18c9 4 9 6-1 6-7 1-15-6-18-14zm-724-9c0-8 4-17 9-20 5-4 7 3 4 14-6 23-13 26-13 6zm51-3c-1-25 24-32 32-10 4 9 8 8 16-3 8-12 12-13 23-2s10 13-2 10c-8-2-14 2-13 7 1 6-7 11-17 11s-17-4-14-7c2-4 0-10-5-13-5-4-12 2-14 11-4 14-5 13-6-4zm205 8c-3-5 1-14 8-20 10-9 16-9 21-1 4 6 1 9-7 8-7-2-12 3-10 10 2 14-4 16-12 3zm235-7c0-11 3-14 6-6 3 7 2 16-1 19-3 4-6-2-5-13zm109 11c0-5 4-16 9-24 10-15 31-7 31 12 0 8-3 7-9-2-7-11-11-10-20 5-6 11-10 15-11 9zm-410-25c0-7 3-10 7-7 3 4 3 10 0 14-4 3-7 0-7-7zm236-2c3-5 10-6 15-3 13 9 11 12-6 12-8 0-12-4-9-9zm-199-485c-16-15-5-23 33-23h40l-35-70c-25-50-31-70-21-70 17 0 89 138 82 157-6 13-87 19-99 6zm-305-150c-33-4-34-5-27-41 13-70 19-74 72-51 26 11 49 22 51 24 2 1 0 19-3 39-8 39-9 39-93 29zm268-123c0-25 4-30 23-29 18 1 18 2 4 6-18 5-18 5 0 19 17 13 17 13-2 14l-20 1 20 9c19 8 19 9-2 9-19 1-23-4-23-29zm56 13c-12-12-6-43 9-43 8 0 15 9 15 19 0 21-13 34-24 24zm39-2c-3-5 0-13 6-17 8-4 7-9-2-15-11-7-11-9 2-9 22 0 28 8 22 31-6 20-18 25-28 10zm66 0c-1-7-7-11-14-8-10 4-12-3-9-26l5-30 14 27c8 15 12 33 9 39-3 8-5 8-5-2zm-762-273c-1-2-3-15-5-30-3-31 12-46 29-29 7 7 14 7 23 0 15-12 64-1 64 14 0 6 7 2 15-9 14-18 15-17 13 16-2 27-7 35-23 35-13 0-20-7-20-20 0-12-8-21-20-22-11-2-14 0-6 3 11 5 11 8 0 15-10 6-11 9-1 9 6 0 12 5 12 10 0 18-30 10-38-10-5-14-11-17-22-10-10 7-11 10-2 10 6 0 12 5 12 10 0 8-28 15-31 8zm128-25c-4-3-10-3-14 0-3 4 0 7 7 7s10-3 7-7zm-110-20c-4-3-10-3-14 0-3 4 0 7 7 7s10-3 7-7zm133 17c0-33 6-36 34-15 23 17 14 45-14 45-16 0-20-7-20-30zm310 0c0-16 5-30 11-30 5 0 7 6 3 13-4 6 2 4 14-7 20-17 22-17 28-2 3 9 3 23 0 32-5 13-9 14-21 4-14-11-19-7-16 13 0 4-3 7-9 7-5 0-10-13-10-30zm-219 11c-17-11-10-46 9-46 17 0 26 33 13 46-4 4-14 4-22 0zm19-21c0-5-4-10-10-10-5 0-10 5-10 10 0 6 5 10 10 10 6 0 10-4 10-10zm72 18c-16-16-15-35 2-41 17-7 26 1 26 24s-14 31-28 17zm-51-8c0-8 4-22 9-30 7-12 11-10 18 10 11 28 6 42-7 21-7-11-10-11-14 0s-6 11-6-1zm89-10c0-25 17-27 22-2 3 15 6 15 23-5 14-17 21-19 27-10 15 24 7 33-32 35-34 2-40 0-40-18zm164 4c3-8 6-20 6-26s6-6 15 2c11 9 15 9 15 1 0-7 5-9 10-6 6 3 10 14 10 23 0 13-9 18-31 20-25 2-30-1-25-14zm-541-204c1-17 8-19 62-19 33 1 63 6 67 13 6 8 8 8 8-1 0-8 14-13 35-13 23 0 35 5 35 14 0 18-21 26-56 20-61-8-123-10-118-2 3 4-4 8-15 8-14 0-19-6-18-20zm164-7c-4-3-10-3-14 0-3 4 0 7 7 7s10-3 7-7zm131 20c-56-3-68-7-68-21 0-15 2-15 10-2 7 10 12 12 18 4 4-6 39-12 79-13 67-2 71-1 66 19-3 11-13 19-22 18s-46-3-83-5z"/></g></svg><svg xmlns="http://www.w3.org/2000/svg" width="2550" height="3300" version="1.0" viewBox="0 0 2550 3300"><g fill="#919bb5" transform="matrix(.9659 0 0 -.96774 0 3300)"><path d="M310 1585V70h2330v450l-1 450H1300v758c0 416-1 846-3 955l-2 197h1345v220H310V1585zm1441-775c-4-3-11-12-14-20-3-9-6-5-6 11-1 30 9 44 20 27 4-7 4-15 0-18zm29-2c0-21-3-29-10-22-5 5-7 19-4 32 9 31 14 27 14-10zm150 2c0-20-5-30-15-30-24 0-31 31-10 46 25 18 25 18 25-16zm283 24c8-8-3-34-14-34-4 0-5 7-2 17 4 11 3 14-5 9-7-4-12-2-12 3 0 12 23 15 33 5zm68-26c-3-24-6-27-9-13-2 11-9 26-14 33-8 9-5 12 9 12 16 0 19-5 14-32zm159 22c0-5-4-10-10-10-5 0-10-6-10-14s-4-17-10-21c-5-3-5 7 1 25 10 28 29 42 29 20zm31-31c-9-23-10-22-10 11-1 23 2 31 9 24s7-19 1-35zm150 22c-6-10-8-21-5-24s1-8-5-12c-12-7-16 37-4 48 14 14 23 6 14-12zm-1061-1c0-5-5-10-11-10-5 0-7 5-4 10 3 6 8 10 11 10 2 0 4-4 4-10zm261-17c-11-5-11-7 0-14s10-9-3-9c-11 0-18 7-18 18 0 25 11 35 24 21 8-8 7-13-3-16zm50 0c-11-5-11-7 0-14s10-9-3-9c-23 0-32 18-17 36 9 11 15 12 23 3 8-8 7-13-3-16zm158-6c-1-17-2-18-6-4-2 9-8 17-13 17s-11-8-13-17c-4-14-5-13-6 4-1 21 16 35 32 26 4-2 6-14 6-26zm51 8c0-19-20-29-32-17-15 15-2 43 17 36 8-3 15-12 15-19zm90 4c0-5-8-9-17-9-15 0-16-2-3-10 9-6 10-10 3-10-16 0-26 18-19 35 5 15 36 10 36-6zm396 12c8 7 14 6 19-2 4-6 2-15-5-19-10-6-9-9 1-13s8-6-4-6c-10-1-20 6-23 14-8 21-24 19-25-2 0-11-2-13-6-5-3 7-2 20 1 29 5 12 10 13 18 5s15-8 24-1zm-589-33c-3-7-5-2-5 12s2 19 5 13c2-7 2-19 0-25zm137 24c-6-4-14-14-17-22-4-10-6-8-6 8-1 15 5 22 17 22 10 0 13-3 6-8zm210 0c-6-4-14-14-17-22-4-10-6-8-6 8-1 15 5 22 17 22 10 0 13-3 6-8zm36-3c0 8 3 12 6 8 3-3 3-15-1-28-6-17-9-19-16-8-5 8-9 21-9 29 0 13 1 13 10 0 8-12 10-12 10-1zm137-21c-3-7-5-2-5 12s2 19 5 13c2-7 2-19 0-25zm-47 6c0-8-4-12-10-9-5 3-10 10-10 16 0 5 5 9 10 9 6 0 10-7 10-16zm-910-28c0-3-5-8-12-12s-8-3-4 4c7 12 16 16 16 8zm-43-23c-4-3-10-3-14 0-3 4 0 7 7 7s10-3 7-7zm38-13c3-5 4-10 1-10s-8 5-11 10c-3 6-4 10-1 10s8-4 11-10zm38-5c-3-9-8-14-10-11-3 3-2 9 2 15 9 16 15 13 8-4zm547-40v-45h-180v90h180v-45zm-350-4c0-10-9-21-20-24-16-4-20 0-20 18 0 22 17 37 33 28 4-2 7-12 7-22zm29-14c1-5-3-5-9-2-5 3-10 16-9 28 0 21 1 21 9 2 5-11 9-24 9-28zm51 12c0-10-6-19-13-19-22 0-27 11-16 32 12 22 29 15 29-13zm49-2c-1-20-2-20-9 3l-7 25-11-25c-10-23-11-24-11-3-1 21 16 35 32 26 4-2 7-14 6-26zm-342-4c-4-3-10-3-14 0-3 4 0 7 7 7s10-3 7-7zm349 138c-4-7-5-15-2-18 9-9 19 4 14 18-4 11-6 11-12 0zm144-5c0-9 5-16 10-16 6 0 10 4 10 9 0 6-4 13-10 16-5 3-10-1-10-9zm-80-129c0-18 2-19 10-7 5 8 10 10 10 4 0-17 98-13 105 4 4 11-5 13-40 10-25-2-45-1-45 2s-9 6-20 7c-14 1-20-4-20-20zm-224 14c-4-7-5-15-2-18 9-9 19 4 14 18-4 11-6 11-12 0zm77-18c4-3 10-3 14 0 3 4 0 7-7 7s-10-3-7-7zm117 1997c-13-10-29-15-35-11-5 5-18 8-27 8-14 0-18-9-18-34 0-18 5-33 10-33 6 0 10 11 10 25 0 18 4 23 15 19 8-4 15-12 15-19 0-21 26-36 46-28 16 7 18 15 14 50l-5 42-25-19zm10-42c0-16-3-19-11-11-6 6-8 16-5 22 11 17 16 13 16-11zm162 17c-1-25 2-45 8-45 5 0 10 20 10 45s-4 45-8 45c-5 0-10-20-10-45zm45 38c-11-10-8-83 3-83 6 0 10 11 10 25s5 25 10 25c6 0 10 9 10 20 0 19-20 27-33 13zm50 0c-11-10-8-83 3-83 6 0 10 11 10 25s5 25 10 25c6 0 10 9 10 20 0 19-20 27-33 13zm45-38c-1-25 2-45 8-45 5 0 10 20 10 45s-4 45-8 45c-5 0-10-20-10-45zm178 1c0-31 4-46 13-46s11 12 9 40c-6 56-22 61-22 6zm-950-6c0-38 20-60 20-22 1 16 1 16 14 0 19-26 21-23 21 22 0 43-8 51-24 23-10-17-10-17-11 0 0 9-4 17-10 17-5 0-10-18-10-40zm550 0c0-41 1-41 33-38 29 3 32 6 32 38s-3 35-32 38c-32 3-33 3-33-38zm50-1c0-10-7-19-15-19-9 0-15 9-15 25 0 18 4 23 15 19 8-4 15-15 15-25zm390 2c0-46 15-60 38-37 15 15 15 16-1 16-20 0-23 26-4 33 9 4 8 8-3 16-25 18-30 13-30-28zm157 32c-11-10-8-73 3-73 6 0 10 18 10 40 0 41-2 45-13 33zm-1064-10c-17-6-16-48 1-62 31-26 60 21 33 57-10 13-14 13-34 5zm24-20c-4-3-10-3-14 0-3 4 0 7 7 7s10-3 7-7zm0-30c-4-3-10-3-14 0-3 4 0 7 7 7s10-3 7-7zm35 13c2-29 8-46 16-46 16 0 34 47 29 74-3 20-4 19-15-4-7-17-11-20-11-8-1 9-6 20-11 23-7 4-9-10-8-39zm67 39c-3-3-4-18-1-35 4-30 26-41 35-17 4 10 6 10 6 0 1-18 28-16 35 3 3 9 6 25 6 37-1 22-1 22-15 3-13-17-15-18-15-3 0 20-16 23-23 5-4-10-7-10-14 0-5 7-12 10-14 7zm103-7c-27-27-2-75 32-62 21 8 21 60 0 68-20 8-18 8-32-6zm28-30c0-16-3-19-11-11-6 6-8 16-5 22 11 17 16 13 16-11zm472 30c-27-27 1-73 36-61 19 7 14 24-5 21-11-2-18 3-18 12s7 14 18 12c21-4 23 14 1 22-20 8-18 8-32-6zm66 6c-12-11-10-48 3-61 6-6 19-8 30-6 14 4 19 14 19 39 0 19-4 34-10 34-5 0-10-11-10-24 0-37-18-41-22-5-2 17-6 27-10 23zm167-21c5-16 8-36 9-45 1-32 25-19 35 20 13 46 13 52 1 52-5 0-10-7-10-15s-4-15-10-15c-5 0-10 7-10 15s-5 15-11 15c-7 0-9-9-4-27zm-985-148c0-25 5-45 10-45 6 0 10 11 10 25s5 25 10 25c6 0 10-11 10-25s5-25 10-25c6 0 10 14 10 31 0 22-5 32-20 36-11 3-20 9-20 14s-4 9-10 9c-5 0-10-20-10-45zm265 27c-8-21-7-22 18-18 29 4 36 35 8 33-11-1-23-7-26-15zm-60-24c2-18 3-36 4-40 2-15 41-8 41 8 0 8-4 12-10 9-5-3-10 0-10 9 0 8 6 17 13 19 9 4 8 8-3 16-27 19-38 12-35-21zm-271 10c-4-6 1-17 10-24 16-12 16-13-1-17s-17-4 0-12c20-8 47 0 47 15 0 6-10 15-22 20-18 7-19 9-5 9 9 1 17 6 17 11 0 14-37 13-46-2zm140-2c-11-29 0-51 26-51 21 0 25 5 25 30 0 24-5 31-23 33-13 2-24-3-28-12zm36-21c0-8-4-15-10-15-5 0-10 7-10 15s5 15 10 15c6 0 10-7 10-15zm40 1c0-20 5-36 10-36 6 0 10 11 10 25 0 18 4 23 16 18 12-4 15-2 12 8-2 8-14 15-26 17-19 3-22-1-22-32zm-215-126c-3-6 1-13 9-16 9-3 16-11 16-16 0-6-8-7-17-3-15 5-16 4-5-6 10-11 14-11 25 0 10 10 8 15-6 26-18 13-18 13 0 18 15 4 16 5 1 6-9 0-20-4-23-9zm47-17c2-14 10-28 18-30 13-4 13-3 0 6-13 10-13 12 0 21s13 10 0 10-13 1 0 10c13 8 12 10-3 10-14 0-18-6-15-27zm49 0c1-23 2-24 6-5 2 12 9 22 15 22 5 0 8-7 5-15-4-8-2-17 2-19 5-3 8 4 7 17-1 12-9 23-18 25-14 3-18-3-17-25zm49 2c0-14 4-24 10-20 5 3 7 12 3 20-6 17 12 21 20 5 3-6 4-5 3 2s-10 14-19 16c-12 3-17-4-17-23zm77 18c-6-13-3-38 6-40 16-6 27-2 27 8 0 8-5 8-15-1-9-8-15-9-15-2 0 6 5 14 10 17 6 3 10 10 10 16 0 11-17 12-23 2zm65-18c0-16 2-24 5-17 3 8 9 10 16 3 9-6 12-2 12 14s-3 20-12 14c-7-7-13-5-16 3-3 7-5 0-5-17zm54 16c-4-5 3-7 14-4 14 4 20 0 20-10 0-22-20-32-31-16-6 9-9 10-9 2 0-20 21-26 37-10 9 9 13 23 10 31-7 17-32 22-41 7zm447-15c1-17 9-31 17-33 10-3 11-2 4 4-7 4-14 19-17 33-4 22-5 21-4-4zm197 14c12-7 12-12 2-22-17-17-15-28 6-28 13 0 14 2 3 9-9 6-10 11-2 15 17 11 13 36-6 36-15 0-16-2-3-10zm40 6c0-2 7-7 16-10 8-3 12-2 9 4-6 10-25 14-25 6zm-490-16c0-7 3-10 7-7 3 4 3 10 0 14-4 3-7 0-7-7zm38-12c4-16 2-19-8-13-9 5-11 4-6-3 4-7 11-12 17-12 12 0 12 37 0 44-5 4-7-4-3-16zm27 12c3-5 8-10 11-10 2 0 4 5 4 10 0 6-5 10-11 10-5 0-7-4-4-10zm29-5c-7-17 3-35 19-35 8 0 7 3-2 9-8 5-11 16-8 25 4 9 4 16 1 16-2 0-7-7-10-15zm66 5c0-7 3-10 7-7 3 4 3 10 0 14-4 3-7 0-7-7zm58 3c20-8 15-36-5-28-15 5-16 4-5-6 9-10 15-10 23-2 14 14 5 43-13 42-10 0-10-2 0-6zm88-1c-3-5 1-9 9-9s12 4 9 9c-3 4-7 8-9 8s-6-4-9-8zm86-12c0-14 2-19 5-12 2 6 2 18 0 25-3 6-5 1-5-13zm163 11c-3-6 0-8 9-5 8 3 16-1 19-10 4-14 5-14 3 0-1 20-21 30-31 15zm49-6c-7-17 3-35 19-34 9 0 9 2 0 6-7 2-13 11-13 18s6 16 13 18c9 4 9 6-1 6-7 1-15-6-18-14zm-724-9c0-8 4-17 9-20 5-4 7 3 4 14-6 23-13 26-13 6zm51-3c-1-25 24-32 32-10 4 9 8 8 16-3 8-12 12-13 23-2s10 13-2 10c-8-2-14 2-13 7 1 6-7 11-17 11s-17-4-14-7c2-4 0-10-5-13-5-4-12 2-14 11-4 14-5 13-6-4zm205 8c-3-5 1-14 8-20 10-9 16-9 21-1 4 6 1 9-7 8-7-2-12 3-10 10 2 14-4 16-12 3zm235-7c0-11 3-14 6-6 3 7 2 16-1 19-3 4-6-2-5-13zm109 11c0-5 4-16 9-24 10-15 31-7 31 12 0 8-3 7-9-2-7-11-11-10-20 5-6 11-10 15-11 9zm-410-25c0-7 3-10 7-7 3 4 3 10 0 14-4 3-7 0-7-7zm236-2c3-5 10-6 15-3 13 9 11 12-6 12-8 0-12-4-9-9zm-199-485c-16-15-5-23 33-23h40l-35-70c-25-50-31-70-21-70 17 0 89 138 82 157-6 13-87 19-99 6zm-305-150c-33-4-34-5-27-41 13-70 19-74 72-51 26 11 49 22 51 24 2 1 0 19-3 39-8 39-9 39-93 29zm268-123c0-25 4-30 23-29 18 1 18 2 4 6-18 5-18 5 0 19 17 13 17 13-2 14l-20 1 20 9c19 8 19 9-2 9-19 1-23-4-23-29zm56 13c-12-12-6-43 9-43 8 0 15 9 15 19 0 21-13 34-24 24zm39-2c-3-5 0-13 6-17 8-4 7-9-2-15-11-7-11-9 2-9 22 0 28 8 22 31-6 20-18 25-28 10zm66 0c-1-7-7-11-14-8-10 4-12-3-9-26l5-30 14 27c8 15 12 33 9 39-3 8-5 8-5-2zm-762-273c-1-2-3-15-5-30-3-31 12-46 29-29 7 7 14 7 23 0 15-12 64-1 64 14 0 6 7 2 15-9 14-18 15-17 13 16-2 27-7 35-23 35-13 0-20-7-20-20 0-12-8-21-20-22-11-2-14 0-6 3 11 5 11 8 0 15-10 6-11 9-1 9 6 0 12 5 12 10 0 18-30 10-38-10-5-14-11-17-22-10-10 7-11 10-2 10 6 0 12 5 12 10 0 8-28 15-31 8zm128-25c-4-3-10-3-14 0-3 4 0 7 7 7s10-3 7-7zm-110-20c-4-3-10-3-14 0-3 4 0 7 7 7s10-3 7-7zm133 17c0-33 6-36 34-15 23 17 14 45-14 45-16 0-20-7-20-30zm310 0c0-16 5-30 11-30 5 0 7 6 3 13-4 6 2 4 14-7 20-17 22-17 28-2 3 9 3 23 0 32-5 13-9 14-21 4-14-11-19-7-16 13 0 4-3 7-9 7-5 0-10-13-10-30zm-219 11c-17-11-10-46 9-46 17 0 26 33 13 46-4 4-14 4-22 0zm19-21c0-5-4-10-10-10-5 0-10 5-10 10 0 6 5 10 10 10 6 0 10-4 10-10zm72 18c-16-16-15-35 2-41 17-7 26 1 26 24s-14 31-28 17zm-51-8c0-8 4-22 9-30 7-12 11-10 18 10 11 28 6 42-7 21-7-11-10-11-14 0s-6 11-6-1zm89-10c0-25 17-27 22-2 3 15 6 15 23-5 14-17 21-19 27-10 15 24 7 33-32 35-34 2-40 0-40-18zm164 4c3-8 6-20 6-26s6-6 15 2c11 9 15 9 15 1 0-7 5-9 10-6 6 3 10 14 10 23 0 13-9 18-31 20-25 2-30-1-25-14zm-541-204c1-17 8-19 62-19 33 1 63 6 67 13 6 8 8 8 8-1 0-8 14-13 35-13 23 0 35 5 35 14 0 18-21 26-56 20-61-8-123-10-118-2 3 4-4 8-15 8-14 0-19-6-18-20zm164-7c-4-3-10-3-14 0-3 4 0 7 7 7s10-3 7-7zm131 20c-56-3-68-7-68-21 0-15 2-15 10-2 7 10 12 12 18 4 4-6 39-12 79-13 67-2 71-1 66 19-3 11-13 19-22 18s-46-3-83-5z"/></g></svg><svg xmlns="http://www.w3.org/2000/svg" width="2550" height="3300" version="1.0" viewBox="0 0 2550 3300"><g fill="#7d6e74" transform="matrix(.9659 0 0 -.96774 0 3300)"><path d="M310 1585V70h2330v176c0 157-2 178-17 190-17 13-17 15-1 28 16 12 18 36 17 260l-1 246H1290l2 958 3 957 673 3 672 2v210H310V1585zm50 1403c0-16-3-19-11-11-6 6-8 16-5 22 11 17 16 13 16-11zm307 15c-4-3-10-3-14 0-3 4 0 7 7 7s10-3 7-7zm33-3c0-5-4-10-10-10-5 0-10 5-10 10 0 6 5 10 10 10 6 0 10-4 10-10zm150 0c0-5-2-10-4-10-3 0-8 5-11 10-3 6-1 10 4 10 6 0 11-4 11-10zm143-15c-7-21-13-19-13 6 0 11 4 18 10 14 5-3 7-12 3-20zm97 21c0-3-5-8-12-12s-8-3-4 4c7 12 16 16 16 8zm547-13c-4-3-7 0-7 7s3 10 7 7c3-4 3-10 0-14zm557 6c-3-6 0-15 7-20 9-6 10-9 2-9-15 0-26 17-18 30 3 6 8 10 11 10s2-5-2-11zm-1224-14c0-8-4-15-10-15-5 0-7 7-4 15 4 8 8 15 10 15s4-7 4-15zm83 0c-3-9-8-14-10-11-3 3-2 9 2 15 9 16 15 13 8-4zm61-1c3-8 2-12-4-9s-10 10-10 16c0 14 7 11 14-7zm56 12c0-2-7-7-16-10-8-3-12-2-9 4 6 10 25 14 25 6zm35-6c3-6-1-7-9-4-18 7-21 14-7 14 6 0 13-4 16-10zm39-5c-4-8-7-15-9-15s-5 7-9 15c-3 9 0 15 9 15s12-6 9-15zm656 11c0-3-5-8-12-12s-8-3-4 4c7 12 16 16 16 8zm387-3c-4-3-10-3-14 0-3 4 0 7 7 7s10-3 7-7zm140 0c-4-3-10-3-14 0-3 4 0 7 7 7s10-3 7-7zm30 0c-4-3-10-3-14 0-3 4 0 7 7 7s10-3 7-7zm-1130-20c-4-3-7 0-7 7s3 10 7 7c3-4 3-10 0-14zm87 9c3-5-1-9-9-9s-12 4-9 9c3 4 7 8 9 8s6-4 9-8zm1090 0c3-5-1-9-9-9s-12 4-9 9c3 4 7 8 9 8s6-4 9-8zm123-9c-4-3-7 0-7 7s3 10 7 7c3-4 3-10 0-14zm-1952-11c-3-3-11 0-18 7-9 10-8 11 6 5 10-3 15-9 12-12zm205 8c0-5-2-10-4-10-3 0-8 5-11 10-3 6-1 10 4 10 6 0 11-4 11-10zm1397-7c-4-3-7 0-7 7s3 10 7 7c3-4 3-10 0-14zM437 2508c-2-13-4-5-4 17-1 22 1 32 4 23 2-10 2-28 0-40zm170 35c-4-3-7 0-7 7s3 10 7 7c3-4 3-10 0-14zm-55-5c-17-17-15-36 6-41 16-4 16-5-1-6-23-1-33 25-17 44 7 8 15 15 18 15s1-5-6-12zm96-2c-7-8-15-12-17-11-5 6 10 25 20 25 5 0 4-6-3-14zm-151-33c-3-10-5-4-5 12 0 17 2 24 5 18 2-7 2-21 0-30zm80 20c-4-3-7 0-7 7s3 10 7 7c3-4 3-10 0-14zm-110-25c-3-7-5-2-5 12s2 19 5 13c2-7 2-19 0-25zm130 0c-3-8-6-5-6 6-1 11 2 17 5 13 3-3 4-12 1-19zm66-5c-7-2-19-2-25 0-7 3-2 5 12 5s19-2 13-5zM1759 823c10-17 10-17 11 0 0 9 5 17 10 17 6 0 10-8 11-17 0-11 3-13 6-5 6 15 33 16 33 1 0-8 4-8 15 1 18 15 35 5 35-21 0-20-24-26-36-8-4 8-9 7-15-2-7-11-12-12-28-2-15 10-21 10-25 0-3-9-7-8-15 3-7 10-11 11-11 3 0-7-4-13-10-13-5 0-10 14-10 30 0 33 14 39 29 13zm171-13c0-23-4-30-20-30-34 0-18 55 18 60 1 0 2-13 2-30zm285 20c3-5-1-20-10-32l-17-23 6 27c5 22 3 26-9 22-8-4-15-15-15-25 0-12-7-19-20-19-11 0-20 7-20 15s-7 15-16 15c-8 0-13-4-9-9 3-5 1-12-5-16s-10 5-10 19c0 24 3 25 40 22 22-2 43 1 46 5 7 12 31 11 39-1zm115-2c8-1 18-7 22-13 5-6 8-5 8 3 0 6 5 12 11 12 13 0 2-40-18-60-13-13-14-13-13 0 4 29 0 40-15 40-8 0-15-7-15-16 0-8-4-13-9-10s-7 15-4 26 0 20-6 20-11-11-11-25c0-36-17-31-22 6-5 30-4 31 26 26 17-3 38-7 46-9zm114-4c11-29 6-39-19-40-29-2-28-3-15 30 11 29 25 34 34 10zm40 10c9-4 16-17 15-33 0-23-1-24-9-6-7 17-9 17-9 3-2-31-21-19-21 12 0 32 1 33 24 24zm142-10c-3-9-6-22-6-30s-4-14-10-14c-5 0-10 14-10 30 0 21 5 30 16 30s14-5 10-16zm-1066-4c0-5-5-10-11-10-5 0-7 5-4 10 3 6 8 10 11 10 2 0 4-4 4-10zm468-17c3-17-2-21-17-20-12 1-21 8-22 17 0 10-3 9-9-5-8-18-9-17-9 8-1 25 2 28 27 25 19-2 28-9 30-25zm50-1c3-17-2-22-17-22-14 0-21 6-21 18 0 38 33 41 38 4zm510 0c4-25-25-32-34-7-4 8-10 15-15 15s-9-7-9-15-4-15-10-15c-10 0-14 33-5 42 3 3 20 5 38 4 25-1 33-7 35-24zm-1048-36c0-3-5-8-12-12s-8-3-4 4c7 12 16 16 16 8zm-43-23c-4-3-10-3-14 0-3 4 0 7 7 7s10-3 7-7zm38-13c3-5 4-10 1-10s-8 5-11 10c-3 6-4 10-1 10s8-4 11-10zm38-5c-3-9-8-14-10-11-3 3-2 9 2 15 9 16 15 13 8-4zm547-40v-45h-180v90h180v-45zm-320 5c0-16-4-30-10-30-5 0-10 14-10 30 0 17 5 30 10 30 6 0 10-13 10-30zm-32-5c1-12-6-25-18-33-19-11-20-10-20 24 0 28 3 35 18 32 9-2 18-12 20-23zm80-3c3-17-2-22-17-22-14 0-21 6-21 18 0 38 33 41 38 4zm49-2c2-23 2-23-6-5-8 17-10 18-10 3-1-28-21-21-21 8 0 34 34 29 37-6zm-340-7c-4-3-10-3-14 0-3 4 0 7 7 7s10-3 7-7zm535-90c-6-2-9-10-6-15 4-7 2-8-5-4-13 9-5 26 12 25 9 0 8-2-1-6zm140 0c-6-2-9-10-6-15 4-7 2-8-5-4-13 9-5 26 12 25 9 0 8-2-1-6zm-475-10c-4-3-10-3-14 0-3 4 0 7 7 7s10-3 7-7zm240-10c-4-3-7 0-7 7s3 10 7 7c3-4 3-10 0-14zm140 0c-4-3-7 0-7 7s3 10 7 7c3-4 3-10 0-14zm411-7c1-15-1-17-7-7-7 11-9 11-14 0-3-9-6-6-6 7-1 27 25 27 27 0zm-675-7c4-16 3-18-9-8-7 6-11 15-8 20 8 13 11 11 17-12zm14 4c-4-3-7 0-7 7s3 10 7 7c3-4 3-10 0-14zm62 3c9-11 9-16-1-22-7-4-10-4-6 1 4 4 3 14-3 22-6 7-9 13-6 13 2 0 10-6 16-14zm82-10c5 3 6 10 3 16-4 7-2 8 5 4 9-6 9-11 0-22-14-17-29-9-28 14 1 15 2 15 6-1 2-9 9-15 14-11zm245-3c-10-10-19 5-10 18 6 11 8 11 12 0 2-7 1-15-2-18zm49 17c3-5 0-7-9-4-8 3-16-2-19-13-4-14-5-14-6 5-1 22 22 31 34 12zm77 3c-6-3-10-8-8-12 3-4-1-8-8-8-22 0-14 23 8 24 12 1 15-1 8-4zm31-13c3-11 1-18-4-14-5 3-9 12-9 20 0 20 7 17 13-6zm14 3c-4-3-7 0-7 7s3 10 7 7c3-4 3-10 0-14zm-683-1c2-4-4-8-15-8-10 0-19 4-19 8s6 8 14 8 17-4 20-8zm593-9c-4-3-7 0-7 7s3 10 7 7c3-4 3-10 0-14zm266 2c-3-9-8-14-10-11-3 3-2 9 2 15 9 16 15 13 8-4zm-828-5c3-5 4-10 1-10s-8 5-11 10c-3 6-4 10-1 10s8-4 11-10zm40 0c3-5 4-10 1-10s-8 5-11 10c-3 6-4 10-1 10s8-4 11-10zm265-4c-7-7-13-7-20 0-6 6-3 10 10 10s16-4 10-10zm-223-73c-4-3-7 0-7 7s3 10 7 7c3-4 3-10 0-14zm60-15c-3-7-5-2-5 12s2 19 5 13c2-7 2-19 0-25zm283 22c0-5-5-10-11-10-5 0-7 5-4 10 3 6 8 10 11 10 2 0 4-4 4-10zm357-22c-3-7-5-2-5 12s2 19 5 13c2-7 2-19 0-25zm-819-9c-3-8-7-3-11 10-4 17-3 21 5 13 5-5 8-16 6-23zm41 14c0-11-3-13-6-5-2 6-9 10-14 6-5-3-9 0-9 5 0 6 7 11 15 11s15-8 14-17zm41-4c0-24-23-21-28 4-2 10 3 17 12 17 10 0 16-9 16-21zm146 9c5-8 2-9-9-5-10 3-17 2-17-2 0-5 6-12 13-14 9-4 9-6 0-6-15-1-26 16-18 29s22 13 31-2zm95-13c5 4 9 1 9-5 0-17-25-6-26 11-1 9 1 10 3 1 3-7 9-10 14-7zm39 15c-13-9-13-11 0-20 9-6 10-10 3-10-6 0-15 5-18 10-8 13 3 30 18 30 7 0 6-4-3-10zm135-10c0-7-7-15-15-17-13-4-13-3 0 6 13 10 13 12 0 22-13 9-13 10 0 6 8-2 15-10 15-17zm22-2c-3-8-6-5-6 6-1 11 2 17 5 13 3-3 4-12 1-19zm88 12c3-6-1-7-9-4-18 7-21 14-7 14 6 0 13-4 16-10zm40-10c0-7-7-15-15-17-13-4-13-3 0 6 13 10 13 12 0 22-13 9-13 10 0 6 8-2 15-10 15-17zm35-12c0-19-16-5-17 14-2 18 0 20 7 8 5-8 10-18 10-22zm45 22c3-6-1-7-9-4-9 3-16 2-16-4s6-13 13-15c9-4 9-6 0-6-15-1-26 16-18 29s22 13 30 0zm66-4c5 3 9 0 9-6 0-7-7-10-15-6-8 3-15 0-15-6s-2-9-5-6-2 13 2 24 8 13 11 6c2-7 8-10 13-6zm-646-17c-4-5-12-9-18-8-9 0-8 2 1 6 6 2 9 10 6 15-4 7-2 8 5 4 6-4 9-12 6-17zm116-2c-10-9-11-8-5 6 3 10 9 15 12 12s0-11-7-18zm26 6c-4-3-7 0-7 7s3 10 7 7c3-4 3-10 0-14zm-310-10c-4-3-7 0-7 7s3 10 7 7c3-4 3-10 0-14zm19-75c4-7 3-8-4-4s-12 0-12-10-3-15-6-11c-7 6 2 37 10 37 3 0 8-5 12-12zm61-5c-4-3-7 0-7 7s3 10 7 7c3-4 3-10 0-14zm-40-15c-3-8-6-5-6 6-1 11 2 17 5 13 3-3 4-12 1-19zm-23-140c7-5 5-8-6-8-14 0-18 8-17 33 2 27 2 28 6 7 3-14 10-28 17-32zm56 19c0-8-3-8-9 1-7 11-9 11-14-2-3-8-1-17 6-20 9-3 8-5-1-5-18-1-27 30-11 39 15 10 29 4 29-13zm40-8c0-21-15-25-26-7-5 7-3 8 6 3 10-6 12-3 8 13-4 12-2 20 3 16 5-3 9-14 9-25zm79 3c0-14-2-13-8 3-8 19-8 19-19 0-10-17-11-17-12-3 0 16 19 29 33 21 4-2 7-12 6-21zm90 0c-1-16-2-16-6 0-3 11-11 15-21 12-14-5-14-4-2 4 18 13 30 6 29-16zm43-14c-16-16-37 4-28 28 6 16 8 16 23 1 13-13 15-20 5-29zm78 19c0-8-3-8-9 1-7 11-9 11-14-2-3-8-1-17 6-20 9-3 9-5 0-5-19-1-26 18-13 34s30 11 30-8zm-263 6c-4-3-10-3-14 0-3 4 0 7 7 7s10-3 7-7zm90-15c-3-8-6-5-6 6-1 11 2 17 5 13 3-3 4-12 1-19zm252 19c-2-1-13-9-24-17-19-14-19-14-6 3 7 9 18 17 24 17s8-1 6-3zm-316 576c4-3 10-3 14 0 3 4 0 7-7 7s-10-3-7-7zm147-4c0-5 5-7 10-4 6 3 10 8 10 11 0 2-4 4-10 4-5 0-10-5-10-11zm-80-122c0-18 2-19 10-7 5 8 10 10 10 4 0-17 98-13 105 4 4 11-5 13-40 10-25-2-45-1-45 2s-9 6-20 7c-14 1-20-4-20-20zm-220 3c0-7 3-10 7-7 3 4 3 10 0 14-4 3-7 0-7-7zm70-230c0-7 3-10 7-7 3 4 3 10 0 14-4 3-7 0-7-7zm220-234c0-9 5-16 10-16 6 0 10 4 10 9 0 6-4 13-10 16-5 3-10-1-10-9zm75 2464c3-5 8-10 11-10 2 0 4 5 4 10 0 6-5 10-11 10-5 0-7-4-4-10zm135 0c0-5 5-10 10-10 6 0 10 5 10 10 0 6-4 10-10 10-5 0-10-4-10-10zm-770-41c0-25 4-38 10-34s8 11 5 16c-4 5-1 9 5 9s13-7 16-15c11-27 19-16 19 25s-8 52-19 25c-3-8-10-15-15-15-6 0-8 7-5 15 4 8 1 15-5 15s-11-18-11-41zm463 27c-42-20-39-66 3-66 21 0 24 4 24 40 0 22-1 39-2 39-2-1-13-6-25-13zm12-34c0-18-20-15-23 4-3 10 1 15 10 12 7-3 13-10 13-16zm75 8c0-38 2-40 30-40 34 0 45 17 36 55-5 20-13 25-36 25-28 0-30-2-30-40zm45 0c0-13-6-25-12-27-9-3-13 6-13 27s4 30 13 28c6-3 12-15 12-28zm75 0c0-22 5-40 10-40 6 0 10 11 10 25s4 25 8 25c5 0 9 7 9 15s-9 15-19 15c-14 0-18-8-18-40zm50 0c0-22 5-40 10-40 6 0 10 11 10 25s4 25 8 25c5 0 9 7 9 15s-9 15-19 15c-14 0-18-8-18-40zm230 0c0-26 5-40 13-40 9 0 11 12 9 40-2 22-8 40-13 40s-9-18-9-40zm40 0c0-33 3-40 20-40 11 0 20 5 20 11 0 5-4 7-10 4-5-3-10 3-10 14 0 10 5 21 10 23 6 2 1 9-10 16-19 11-20 10-20-28zm157 33c-11-10-8-73 3-73 6 0 10 18 10 40 0 41-2 45-13 33zm-1067-18c-17-21-8-50 18-53 12-2 22 1 22 7s-7 8-15 5c-8-4-15-1-15 5s9 11 20 11c23 0 26 10 8 28-16 16-23 15-38-3zm27-12c-4-3-10-3-14 0-3 4 0 7 7 7s10-3 7-7zm208 13c-25-18-15-51 15-51 20 0 26 6 28 26 4 31-18 44-43 25zm25-26c0-11-4-20-10-20-5 0-10 9-10 20s5 20 10 20c6 0 10-9 10-20zm475 23c-9-8-14-22-11-30s6-17 6-19 11-4 25-4 25 5 25 10c0 6-8 10-17 8-11-2-18 3-18 12s7 14 18 12c21-3 23 14 2 22-8 3-22-2-30-11zm-675-2c0-5 4-21 9-35 7-17 7-26-2-30-7-2-4-5 6-5 19-1 40 42 34 68-3 12-7 9-15-9-10-24-11-24-11-2-1 20-21 33-21 13zm72-15c3-32 28-49 28-20 0 16 1 16 15-2 13-16 16-17 25-4 5 8 10 24 10 35-1 20-1 20-15 1-13-17-15-18-15-3 0 20-16 23-23 5-4-10-8-9-17 2-9 12-10 9-8-14zm168-6c0-16 5-30 10-30 6 0 10 11 10 25 0 18 4 23 15 19 8-4 15-1 15 5s-11 11-25 11c-21 0-25-5-25-30zm250 0c0-16 5-30 10-30 6 0 10 14 10 30 0 17-4 30-10 30-5 0-10-13-10-30zm140 0c0-16 5-30 10-30 6 0 10 14 10 30 0 17-4 30-10 30-5 0-10-13-10-30zm102 3c2-22 9-29 31-31 24-3 27 0 27 27 0 17-4 31-10 31-5 0-10-11-10-25s-4-25-10-25c-5 0-10 11-10 25s-5 25-11 25-9-12-7-27zm174 5c4-13 8-31 8-40 0-20 11-24 21-8 14 22 23 70 14 70-5 0-9-7-9-15s-4-15-10-15c-5 0-10 7-10 15s-5 15-11 15-8-9-3-22zm-986-144c0-24 5-44 10-44 6 0 10 11 10 25s5 25 10 25c6 0 10-12 10-27 0-20 3-24 11-16 17 17 3 57-26 70-25 11-25 11-25-33zm265 28c-8-21-7-22 18-18 28 4 35 32 8 32-11 0-23-6-26-14zm-55-33c0-27 4-39 14-39 8 0 18 5 21 10 3 6-1 10-9 10-9 0-16 7-16 15s7 15 15 15c22 0 18 17-5 23-17 4-20 0-20-34zm-275 21c-8-14 3-30 21-30 8 0 13-4 9-10-3-5-13-6-23-3-13 5-14 3-6-6 14-15 46-11 52 7 2 6-7 16-20 21-18 8-19 10-5 10 21 1 13 21-8 21-8 0-17-4-20-10zm146-4c-20-24-9-51 19-51 21 0 25 5 25 30 0 34-24 45-44 21zm29-21c0-8-4-15-10-15-5 0-10 7-10 15s5 15 10 15c6 0 10-7 10-15zm40-3c0-30 12-39 16-11 1 5 2 14 3 19 0 6 5 9 10 8 5-2 10 2 10 7 1 6-8 11-19 11-16 1-20-5-20-34zm425-662c3-5 22-10 41-10s34-2 34-5-14-33-31-66c-17-34-28-64-25-67s8-3 10-1c6 7 76 148 76 154 0 3-25 5-56 5-34 0-53-4-49-10zm-285-139c-25-3-44-10-43-16 17-92 18-93 78-66 42 19 45 22 39 48-8 34-13 43-22 41-4 0-27-4-52-7zm252-118c2-19 9-29 23-30 15-2 16-1 5 5-8 4-15 14-15 22s7 18 15 22c11 5 8 7-8 7-20 1-23-3-20-26zm62 9c3-6 2-13-4-17-15-9-12-25 5-25 18 0 20 36 3 46-6 4-8 3-4-4zm33-14c7-8 10-18 6-21-3-4-1-7 5-7 22 0 22 19 0 31-20 11-21 10-11-3zm41-4c6-12 8-25 4-30s0-3 8 4c12 10 12 15-4 30-18 16-18 16-8-4zm-739-256c-9-20-5-58 7-62 20-7 31 23 13 35-11 7-11 9-1 9 7 0 10 5 7 10-6 9-23 14-26 8zm18-45c-4-3-10-3-14 0-3 4 0 7 7 7s10-3 7-7zm33 17c0-22 5-30 18-30 14 0 15 2 2 10-13 9-13 10 0 10s13 1 0 10c-10 6-11 10-2 10 6 0 12 5 12 10 0 6-7 10-15 10-10 0-15-10-15-30zm51-2c0-18 3-27 6-20 3 9 9 10 17 2 10-8 13-3 12 17-1 18-7 29-18 31-14 3-18-3-17-30zm26 5c-4-3-10-3-14 0-3 4 0 7 7 7s10-3 7-7zm30 20c-11-10-8-53 3-53 6 0 10 5 10 10 0 6 7 10 15 10 20 0 19 26-1 34-19 7-19 7-27-1zm73-33c0-13 7-20 20-20s20 7 20 20-7 20-20 20-20-7-20-20zm30 0c0-5-4-10-10-10-5 0-10 5-10 10 0 6 5 10 10 10 6 0 10-4 10-10zm22 6c4-27 24-31 31-6 3 11 1 20-4 20s-9-6-9-12c0-9-4-8-11 2-8 12-10 12-7-4zm43 4c-8-13 14-42 26-34 5 3 9 14 9 25 0 20-24 26-35 9zm45-10c0-11 5-20 10-20 6 0 10 7 10 15s7 15 15 15 15-7 15-16c0-22 24-12 28 12 3 16 1 16-7 4-7-10-11-11-11-2 0 7-13 12-30 12-23 0-30-4-30-20zm92 0c0-14 2-19 5-12 2 6 2 18 0 25-3 6-5 1-5-13zm23 10c-8-13 14-42 26-34 5 3 9 14 9 25 0 20-24 26-35 9zm53-12c5-21 46-19 50 4 2 10-6 14-26 14-23 0-28-3-24-18zm-548-188c0-5 4-10 9-10 6 0 13 5 16 10 3 6-1 10-9 10-9 0-16-4-16-10zm176-5c-3-8-11-15-18-15-9 0-9 3 2 10s2 9-32 8c-33-1-48-5-48-15 0-15 30-14 43 2 6 6 10 6 14-2 2-7 16-13 29-13s24 6 24 13c0 8 4 7 10-3 5-8 10-10 10-4s-6 17-14 23c-10 9-15 8-20-4zm175-2c-6-10-11-13-11-7 0 5-18 11-40 12-30 2-40-1-40-13 0-18 12-19 28-3 7 7 12 8 12 2s23-10 54-10c47 0 52 2 48 20-5 18-6 18-19 1-12-17-18-14-14 8 2 13-8 7-18-10zm-325-6c-17-12-16-14 13-14 19 0 31 5 31 14 0 7-6 13-13 13s-21-6-31-13zm204-2c0-8 2-15 4-15s6 7 10 15c3 8 1 15-4 15-6 0-10-7-10-15zm920-605c0-5 5-10 10-10 6 0 10 5 10 10 0 6-4 10-10 10-5 0-10-4-10-10z"/></g></svg><svg xmlns="http://www.w3.org/2000/svg" width="2550" height="3300" version="1.0" viewBox="0 0 2550 3300"><g fill="#1c6556" transform="matrix(.9659 0 0 -.96774 0 3300)"><path d="M311 1803c-1-714 1-1396 5-1515l7-218h2317v176c0 157-2 178-17 190-17 13-17 15-1 28 16 12 18 36 17 260l-1 246H1290l-1 903c-1 496-1 906 0 910s-6 10-14 13c-8 4-15 11-15 16 0 6 7 8 15 4 12-4 15 3 15 34v40h1350v46c0 36-3 44-12 37-12-9-76-8-86 1-2 3 1 13 7 23s11 13 11 6 7-10 16-6c9 3 20 0 25-8 7-12 9-12 9 0 0 7 6 11 15 7 12-4 15 5 15 49v55H312l-1-1297zm373 1211c21-8 21-43 0-51-8-3-23 1-31 10-13 13-14 19-3 31 14 18 13 18 34 10zm178-17c-24-11-38-5-28 11 3 6 16 8 28 4l22-5-22-10zm-482-2c10-12 9-15-4-15-10 0-14-4-11-10 3-5 2-10-3-10-12 0-24 29-16 41 8 13 20 11 34-6zm152-17c-9-9-12-7-12 12s3 21 12 12 9-15 0-24zm515 22c18 5 42 6 53 3 21-6 27-28 10-38-5-3-10 2-10 12 0 14-2 15-9 4-5-7-14-10-20-7-6 4-11 1-11-6-1-8-6-6-15 6-8 11-15 14-15 8 0-7-7-12-15-12s-15 5-15 11-7 3-16-5c-17-18-30-20-38-8-8 13 11 35 23 28 6-4 11-2 11 4 0 7 6 8 16 2 9-5 32-6 51-2zm247 4c9-3 13-11 9-18-3-6-1-6 8 2 30 27 79-2 50-31-8-8-11-6-12 9 0 10-3 14-5 8-7-17-68-1-72 19-4 19-1 20 22 11zm216-38c-8-8-14-7-21 7-9 15-12 16-25 2-9-8-21-12-27-8-7 4-22 6-33 5-12-2-24 3-27 11-3 9 6 13 34 14 27 1 37-3 32-11-4-6 1-5 10 2 9 8 20 11 25 9 4-3 14-2 22 3 19 12 27-17 10-34zm76 37c-3-4 3-12 15-19 21-11 21-11-10-16-36-5-55 17-30 33 17 10 35 12 25 2zm53-17c0-12-3-15-6-8-2 6-11 12-19 12-9 0-13 4-10 8 11 17 36 8 35-12zm151 10c11-3 20 0 20 5 0 13 59 2 79-15 11-8 13-8 8 1-5 8 0 11 13 10 11-1 20-6 20-12 0-5 4-4 9 4s18 12 30 8c12-3 21-1 21 3 0 5 13 5 29 0 15-4 40-5 56-3 17 4 31 1 37-8 7-11 11-11 15-1 2 6 11 12 19 12s14-6 14-12c0-7 7-4 16 7 13 17 16 18 25 5 8-11 12-12 15-3 4 8 13 9 27 4 12-4 28-6 36-3 10 3 11 0 5-9-7-12-5-12 9 0 12 10 17 10 17 2s6-7 16 3c21 21 24 20 23-6 0-13-3-17-6-9-4 10-7 11-13 1-12-20-70-23-77-4-3 9-8 11-12 6-8-14-91-22-91-9 0 5-6 4-14-2-9-7-17-8-20-2-3 5-16 7-29 5-20-4-21-4-2 5 20 9 20 10-1 10-12 1-25-8-32-21l-11-23v23c-1 21-21 33-21 12 0-5-11-9-25-8s-25 7-25 13c0 5-4 4-9-4-13-20-100-21-111-1-5 8-10 11-10 5 0-5-5-3-10 5-7 12-11 10-19-10-8-22-10-22-11-5-1 18-3 17-12-5l-11-25-5 24c-3 19-6 21-13 10s-9-11-9-1-3 10-15-2c-9-8-27-13-43-11-15 2-30 4-34 4-5 1-8 9-8 18 0 13 3 14 12 5 7-7 17-12 23-12 5 0 3 5-5 10-13 8-13 10 2 10 9 0 19-6 22-12 4-10 9-9 18 4 6 9 20 14 30 12s27-6 38-8zm671-10c24 15 79 15 73 0-3-7-10-13-17-13-7-1-33-3-60-6-26-2-50-1-52 3-3 5-13 7-23 5-11-1-12 0-2 3 12 4 11 7-5 14-19 8-19 8 1 4 12-2 28 0 35 5 8 4 17 1 24-8 8-11 17-13 26-7zm-1301 4c-9-6-10-10-3-10 6 0 15 5 18 10 9 15 27 12 19-2-6-10-4-10 7 0 19 17 56 15 63-4 4-9 4-19 1-22-2-3-8 3-11 12-5 14-9 15-15 4-7-10-9-10-9 2s-2 12-9 2c-10-16-68-25-76-11-8 12 3 29 18 29 7 0 6-4-3-10zm1297 3c-4-3-10-3-14 0-3 4 0 7 7 7s10-3 7-7zm-1574-24c-5-5-20-5-33-2l-25 7 25 6c28 8 46 2 33-11zm-507-156c10 28 24 19 24-15 0-23-3-29-9-19-7 11-9 11-14 0-5-12-7-12-15 0-8 11-10 11-15 0-3-8-6 2-6 21 0 33 1 34 14 16 13-17 15-17 21-3zm259-2c10 15 35-9 28-27-6-17-33-19-33-1 0 8-4 7-10-3-8-13-10-12-10 3 0 9-4 17-9 17s-12-8-14-17c-3-10-5-3-6 16-1 33-1 33 23 17 16-10 27-12 31-5zm321 7c5-8 1-9-12-4-15 6-17 5-6-6 10-10 17-10 32 0 13 8 21 8 26 1 4-8 9-8 17 0 14 14 38-5 30-25-6-17-33-19-33-1 0 8-3 9-8 1-4-6-23-11-43-12-33-1-36 1-37 28-1 31 20 41 34 18zm220-15c15-16 22-21 15-11-13 18-7 24 29 26 20 1 25-3 25-22 0-21-4-24-42-23-32 0-43 5-44 16 0 12-3 11-9-4-8-18-9-18-10 5l-1 25-14-25c-9-16-15-20-15-10-1 10-3 11-7 3-7-19-20-16-26 6-3 13 1 21 14 24 11 3 19 0 19-6s8-4 17 6c21 21 17 22 49-10zm-722 5c3 5 19 9 36 10 26 1 29-2 19-14-8-10-8-14 0-14 6 0 11-4 11-10 0-15-30-12-31 3 0 10-2 10-6 0-2-7-11-13-19-13s-14 6-15 13c0 10-2 10-6 0-7-20-33-15-33 5 0 25 11 34 26 21 7-5 15-6 18-1zm112-13c-1-33-16-33-16 0 0 14 4 25 9 25s8-11 7-25zm149 0c0-30-19-27-23 3-2 13 2 22 10 22 7 0 13-11 13-25zm45-6c0-20-24-26-35-9-8 13 14 42 26 34 5-3 9-14 9-25zm40 6c0-16-6-25-15-25-15 0-21 31-8 43 13 14 23 6 23-18zm67-6c2-22 2-22-6-4-9 18-10 18-10 2-1-10-6-15-11-12-6 4-8 11-5 16 4 5 1 9-4 9-6 0-11-8-12-17 0-11-2-13-6-5-9 23 5 42 29 39 16-3 24-11 25-28zm-387-281c0-10-4-18-10-18-5 0-10 9-10 20s-4 20-10 20c-5 0-10-9-10-20s-4-20-10-20c-11 0-14 63-4 73 10 9 54-35 54-55zm136 40c-3-13-6-31-6-40 0-10-4-18-10-18-11 0-14 63-3 73 14 15 25 6 19-15zm-96-8c0-5-4-10-9-10s-12-10-14-22c-3-17-5-14-6 10-1 22 3 32 14 32 8 0 15-4 15-10zm58-13c2-11-3-17-15-18-16 0-16-1 2-9 19-8 19-9-3-9-25-1-38 20-28 45 8 20 40 14 44-9zm92 12c0-5-4-7-10-4-5 3-10 1-10-4 0-6 7-11 15-11s15-7 15-15c0-9-9-15-24-15-21 0-24 4-22 28 5 34 3 32 21 32 8 0 15-5 15-11zm-263-31c-3-7-5-2-5 12s2 19 5 13c2-7 2-19 0-25zM1455 850c3-11 13-20 21-20 18 0 18-19-1-26-8-3-17-14-20-25-8-23-25-25-25-4 0 9-7 18-15 21-8 4-15 12-15 19s7 15 15 19c8 3 15 12 15 21 0 22 18 19 25-5zm304-27c10-17 10-17 11 0 0 9 5 17 10 17 6 0 10-8 11-17 0-11 3-13 6-5 6 15 33 16 33 1 0-8 4-8 15 1 18 15 35 5 35-21 0-20-24-26-36-8-4 8-9 7-15-2-7-11-12-12-28-2-15 10-21 10-25 0-3-9-7-8-15 3-7 10-11 11-11 3 0-7-4-13-10-13-5 0-10 14-10 30 0 33 14 39 29 13zm171-13c0-23-4-30-20-30-34 0-18 55 18 60 1 0 2-13 2-30zm285 20c3-5-1-20-10-32l-17-23 6 27c5 22 3 26-9 22-8-4-15-15-15-25 0-12-7-19-20-19-11 0-20 7-20 15s-7 15-16 15c-8 0-13-4-9-9 3-5 1-12-5-16s-10 5-10 19c0 24 3 25 40 22 22-2 43 1 46 5 7 12 31 11 39-1zm115-2c8-1 18-7 22-13 5-6 8-5 8 3 0 6 5 12 11 12 13 0 2-40-18-60-13-13-14-13-13 0 4 29 0 40-15 40-8 0-15-7-15-16 0-8-4-13-9-10s-7 15-4 26 0 20-6 20-11-11-11-25c0-36-17-31-22 6-5 30-4 31 26 26 17-3 38-7 46-9zm114-4c11-29 6-39-19-40-29-2-28-3-15 30 11 29 25 34 34 10zm40 10c9-4 16-17 15-33 0-23-1-24-9-6-7 17-9 17-9 3-2-31-21-19-21 12 0 32 1 33 24 24zm142-10c-3-9-6-22-6-30s-4-14-10-14c-5 0-10 14-10 30 0 21 5 30 16 30s14-5 10-16zm-1056-30c4-20 12-30 28-32 12-2 22-10 22-17s-10-15-22-17c-16-2-24-12-28-32-7-43-28-44-36-2-5 29-11 36-30 36-15 0-24 6-24 15s9 15 24 15c19 0 25 7 30 36 8 42 29 41 36-2zm458 9c3-17-2-21-17-20-12 1-21 8-22 17 0 10-3 9-9-5-8-18-9-17-9 8-1 25 2 28 27 25 19-2 28-9 30-25zm50-1c3-17-2-22-17-22-14 0-21 6-21 18 0 38 33 41 38 4zm510 0c4-25-25-32-34-7-4 8-10 15-15 15s-9-7-9-15-4-15-10-15c-10 0-14 33-5 42 3 3 20 5 38 4 25-1 33-7 35-24zm-468-122v-50h-180v100h180v-50zm-320 10c0-16-4-30-10-30-5 0-10 14-10 30 0 17 5 30 10 30 6 0 10-13 10-30zm-32-5c1-12-6-25-18-33-19-11-20-10-20 24 0 28 3 35 18 32 9-2 18-12 20-23zm80-3c3-17-2-22-17-22-14 0-21 6-21 18 0 38 33 41 38 4zm49-2c2-23 2-23-6-5-8 17-10 18-10 3-1-28-21-21-21 8 0 34 34 29 37-6zm195-97c-6-2-9-10-6-15 4-7 2-8-5-4-13 9-5 26 12 25 9 0 8-2-1-6zm140 0c-6-2-9-10-6-15 4-7 2-8-5-4-13 9-5 26 12 25 9 0 8-2-1-6zm-475-10c-4-3-10-3-14 0-3 4 0 7 7 7s10-3 7-7zm240-10c-4-3-7 0-7 7s3 10 7 7c3-4 3-10 0-14zm140 0c-4-3-7 0-7 7s3 10 7 7c3-4 3-10 0-14zm411-7c1-15-1-17-7-7-7 11-9 11-14 0-3-9-6-6-6 7-1 27 25 27 27 0zm-675-7c4-16 3-18-9-8-7 6-11 15-8 20 8 13 11 11 17-12zm14 4c-4-3-7 0-7 7s3 10 7 7c3-4 3-10 0-14zm62 3c9-11 9-16-1-22-7-4-10-4-6 1 4 4 3 14-3 22-6 7-9 13-6 13 2 0 10-6 16-14zm82-10c5 3 6 10 3 16-4 7-2 8 5 4 9-6 9-11 0-22-14-17-29-9-28 14 1 15 2 15 6-1 2-9 9-15 14-11zm245-3c-10-10-19 5-10 18 6 11 8 11 12 0 2-7 1-15-2-18zm49 17c3-5 0-7-9-4-8 3-16-2-19-13-4-14-5-14-6 5-1 22 22 31 34 12zm77 3c-6-3-10-8-8-12 3-4-1-8-8-8-22 0-14 23 8 24 12 1 15-1 8-4zm31-13c3-11 1-18-4-14-5 3-9 12-9 20 0 20 7 17 13-6zm14 3c-4-3-7 0-7 7s3 10 7 7c3-4 3-10 0-14zm-683-1c2-4-4-8-15-8-10 0-19 4-19 8s6 8 14 8 17-4 20-8zm593-9c-4-3-7 0-7 7s3 10 7 7c3-4 3-10 0-14zm266 2c-3-9-8-14-10-11-3 3-2 9 2 15 9 16 15 13 8-4zm-828-5c3-5 4-10 1-10s-8 5-11 10c-3 6-4 10-1 10s8-4 11-10zm40 0c3-5 4-10 1-10s-8 5-11 10c-3 6-4 10-1 10s8-4 11-10zm265-4c-7-7-13-7-20 0-6 6-3 10 10 10s16-4 10-10zm-223-73c-4-3-7 0-7 7s3 10 7 7c3-4 3-10 0-14zm60-15c-3-7-5-2-5 12s2 19 5 13c2-7 2-19 0-25zm283 22c0-5-5-10-11-10-5 0-7 5-4 10 3 6 8 10 11 10 2 0 4-4 4-10zm357-22c-3-7-5-2-5 12s2 19 5 13c2-7 2-19 0-25zm-819-9c-3-8-7-3-11 10-4 17-3 21 5 13 5-5 8-16 6-23zm41 14c0-11-3-13-6-5-2 6-9 10-14 6-5-3-9 0-9 5 0 6 7 11 15 11s15-8 14-17zm41-4c0-24-23-21-28 4-2 10 3 17 12 17 10 0 16-9 16-21zm146 9c5-8 2-9-9-5-10 3-17 2-17-2 0-5 6-12 13-14 9-4 9-6 0-6-15-1-26 16-18 29s22 13 31-2zm95-13c5 4 9 1 9-5 0-17-25-6-26 11-1 9 1 10 3 1 3-7 9-10 14-7zm39 15c-13-9-13-11 0-20 9-6 10-10 3-10-6 0-15 5-18 10-8 13 3 30 18 30 7 0 6-4-3-10zm135-10c0-7-7-15-15-17-13-4-13-3 0 6 13 10 13 12 0 22-13 9-13 10 0 6 8-2 15-10 15-17zm22-2c-3-8-6-5-6 6-1 11 2 17 5 13 3-3 4-12 1-19zm88 12c3-6-1-7-9-4-18 7-21 14-7 14 6 0 13-4 16-10zm40-10c0-7-7-15-15-17-13-4-13-3 0 6 13 10 13 12 0 22-13 9-13 10 0 6 8-2 15-10 15-17zm35-12c0-19-16-5-17 14-2 18 0 20 7 8 5-8 10-18 10-22zm45 22c3-6-1-7-9-4-9 3-16 2-16-4s6-13 13-15c9-4 9-6 0-6-15-1-26 16-18 29s22 13 30 0zm66-4c5 3 9 0 9-6 0-7-7-10-15-6-8 3-15 0-15-6s-2-9-5-6-2 13 2 24 8 13 11 6c2-7 8-10 13-6zm-646-17c-4-5-12-9-18-8-9 0-8 2 1 6 6 2 9 10 6 15-4 7-2 8 5 4 6-4 9-12 6-17zm116-2c-10-9-11-8-5 6 3 10 9 15 12 12s0-11-7-18zm26 6c-4-3-7 0-7 7s3 10 7 7c3-4 3-10 0-14zm-310-10c-4-3-7 0-7 7s3 10 7 7c3-4 3-10 0-14zm19-75c4-7 3-8-4-4s-12 0-12-10-3-15-6-11c-7 6 2 37 10 37 3 0 8-5 12-12zm61-5c-4-3-7 0-7 7s3 10 7 7c3-4 3-10 0-14zm-40-15c-3-8-6-5-6 6-1 11 2 17 5 13 3-3 4-12 1-19zm-23-140c7-5 5-8-6-8-14 0-18 8-17 33 2 27 2 28 6 7 3-14 10-28 17-32zm56 19c0-8-3-8-9 1-7 11-9 11-14-2-3-8-1-17 6-20 9-3 8-5-1-5-18-1-27 30-11 39 15 10 29 4 29-13zm40-8c0-21-15-25-26-7-5 7-3 8 6 3 10-6 12-3 8 13-4 12-2 20 3 16 5-3 9-14 9-25zm79 3c0-14-2-13-8 3-8 19-8 19-19 0-10-17-11-17-12-3 0 16 19 29 33 21 4-2 7-12 6-21zm90 0c-1-16-2-16-6 0-3 11-11 15-21 12-14-5-14-4-2 4 18 13 30 6 29-16zm43-14c-16-16-37 4-28 28 6 16 8 16 23 1 13-13 15-20 5-29zm78 19c0-8-3-8-9 1-7 11-9 11-14-2-3-8-1-17 6-20 9-3 9-5 0-5-19-1-26 18-13 34s30 11 30-8zm-263 6c-4-3-10-3-14 0-3 4 0 7 7 7s10-3 7-7zm90-15c-3-8-6-5-6 6-1 11 2 17 5 13 3-3 4-12 1-19zm252 19c-2-1-13-9-24-17-19-14-19-14-6 3 7 9 18 17 24 17s8-1 6-3zM660 2985c0-9 5-15 11-13s11 8 11 13-5 11-11 13-11-4-11-13zm833-2c4-3 10-3 14 0 3 4 0 7-7 7s-10-3-7-7zm370 0c4-3 10-3 14 0 3 4 0 7-7 7s-10-3-7-7zm-930-200c4-3 10-3 14 0 3 4 0 7-7 7s-10-3-7-7zm-290-280c4-3 10-3 14 0 3 4 0 7-7 7s-10-3-7-7zm788-1677c-8-10-8-16 1-24 19-15 40 9 22 25-9 9-15 9-23-1zm472-23c4-3 10-3 14 0 3 4 0 7-7 7s-10-3-7-7zm-353-20c0-6-6-18-13-25-11-11-11-16 3-30 15-16 16-16 26 0 7 12 6 24-3 42-7 14-13 20-13 13zm500 16c0-5 5-7 10-4 6 3 10 8 10 11 0 2-4 4-10 4-5 0-10-5-10-11zm-77-114c0-8 3-13 5-10 3 3 12-1 20-8 13-11 14-9 1 11-16 26-26 28-26 7zm47-10c0-8 2-15 4-15s6 7 10 15c3 8 1 15-4 15-6 0-10-7-10-15zm45 4c-4-5-4-13-1-16 3-4 6 0 6 8 0 11 2 11 10-1 6-9 10-10 10-3 0 17-17 25-25 12zm-315 1c0-7 3-10 7-7 3 4 3 10 0 14-4 3-7 0-7-7zm70-230c0-7 3-10 7-7 3 4 3 10 0 14-4 3-7 0-7-7zm220-234c0-9 5-16 10-16 6 0 10 4 10 9 0 6-4 13-10 16-5 3-10-1-10-9zm73 2467c4-3 10-3 14 0 3 4 0 7-7 7s-10-3-7-7zm140 0c4-3 10-3 14 0 3 4 0 7-7 7s-10-3-7-7zm-771-43c0-25 2-37 5-27 6 21 12 21 35 0 19-17 24-8 9 16-6 9-6 22 0 33s6 18 0 18c-5 0-11-7-15-15-7-20-24-19-29 3-3 9-5-3-5-28zm478 30c0-5-9-10-20-10-16 0-20-7-20-30 0-25 4-30 25-30 23 0 25 4 25 40 0 22-2 40-5 40s-5-4-5-10zm-2-37c-5-25-28-28-28-4 0 12 6 21 16 21 9 0 14-7 12-17zm72 7c0-39 2-41 26-38 35 4 53 31 38 56-6 9-23 18-38 20-24 3-26 1-26-38zm45-1c0-14-6-24-15-24-12 0-17 21-11 51 3 17 26-6 26-27zm82 34c-11-10-8-73 3-73 6 0 10 11 10 25s6 25 13 25c9 0 8 3-2 9-11 7-11 9 0 14 11 4 10 6-2 6-9 1-19-2-22-6zm50 0c-11-10-8-73 3-73 6 0 10 11 10 25s6 25 13 25c9 0 8 3-2 9-11 7-11 9 0 14 11 4 10 6-2 6-9 1-19-2-22-6zm225-30c2-21 9-38 18-41 13-5 13-3 1 11-7 9-11 28-9 42 3 14 1 25-4 25s-8-17-6-37zm40 0c2-27 8-39 21-41 9-2 17 2 17 8s-4 8-10 5c-5-3-10 3-10 14 0 10 5 21 10 23 6 2 1 9-11 16-19 12-20 11-17-25zm161-3c0-25 2-35 4-22 2 12 2 32 0 45-2 12-4 2-4-23zm-1079 6c-10-25 3-46 28-45 17 1 18 2 6 6-25 6-22 23 3 23 27 0 19 24-9 28-13 2-25-3-28-12zm33-3c-4-3-10-3-14 0-3 4 0 7 7 7s10-3 7-7zm38-9c4-16 8-35 8-41 0-14 13-17 20-5 3 4 8 23 11 42 7 35 7 35-8 10-11-18-15-21-16-8 0 9-5 20-11 24-9 5-10-1-4-22zm66 14c-1-23 9-48 20-48 5 0 9 8 9 18 1 15 2 15 15-2 17-23 21-21 30 19 7 29 7 29-8 10-15-18-16-18-17-2 0 9-4 17-9 17s-12-8-16-17c-7-17-8-16-15 2-7 16-9 17-9 3zm96-2c-10-26 4-47 27-44 15 2 21 10 21 28 0 29-38 41-48 16zm38-16c0-7-6-15-12-17-8-3-13 4-13 17s5 20 13 18c6-3 12-11 12-18zm36-2c1-31 1-31 8-8 4 14 13 24 19 23 7-2 12 2 12 7 0 6-9 10-20 10-16 0-20-6-19-32zm261 2c0-19 2-27 5-17 2 9 2 25 0 35-3 9-5 1-5-18zm128 0c0-16 5-30 10-30 6 0 10 14 10 30 0 17-4 30-10 30-5 0-10-13-10-30zm40 0c0-23 5-30 19-30 11 0 23 5 27 11 4 8 0 9-15 4-17-5-21-2-21 15s4 20 21 15c15-5 19-4 15 4-4 6-16 11-27 11-14 0-19-7-19-30zm65 8c1-13 3-26 4-30 0-5 12-8 26-8 21 0 25 5 25 30 0 17-4 30-10 30-5 0-10-11-10-25s-4-25-10-25c-5 0-10 11-10 25s-4 25-9 25c-4 0-7-10-6-22zm175-9c5-18 7-36 4-40-3-5-1-9 5-9 12 0 20 13 31 50 5 18 5 30-1 30-5 0-9-9-9-20s-4-20-10-20c-5 0-10 9-10 20s-4 20-9 20c-6 0-6-12-1-31zm-989-134c1-36 3-43 8-26 9 35 29 37 34 4 4-22 5-20 3 7 0 21-6 35-14 35-7 0-17 7-22 15-7 11-9 0-9-35zm209 0c0-37 15-54 33-36 8 8 6 11-6 11-9 0-17 7-17 15s5 15 10 15c15 0 12 17-5 24-12 4-15-3-15-29zm56 18c-6-14-5-15 5-6 7 7 10 15 7 18s-9-2-12-12zm31 10c-4-3-7-11-7-17s5-5 12 2c6 6 9 14 7 17-3 3-9 2-12-2zm-357-19c-11-13-10-16 8-21 12-3 22-10 22-15 0-6-7-8-15-4-8 3-15 1-15-5s8-9 17-7c23 4 30 38 9 38-9 0-16 4-16 10 0 5 7 6 17 3 11-4 14-3 9 5-10 16-21 15-36-4zm139 0c-16-20 0-49 27-49 22 0 31 30 14 50-16 19-24 19-41-1zm34-10c8-8-3-34-14-34-5 0-9 9-9 20 0 19 11 26 23 14zm38-14c2-31 2-32 6-7 3 20 9 27 19 23 8-3 14 1 14 9s-9 13-20 12c-16-1-20-8-19-37zm457-657c23-2 42-9 42-14s-14-37-31-70c-17-34-28-64-25-67s8-3 10-1c6 7 76 148 76 154 0 3-26 4-57 3-50-1-52-2-15-5zm-312-141-48-3 5-41c8-58 17-63 71-39 43 19 46 22 40 48-9 37-11 38-68 35zm315-128c0-11 3-14 6-6 3 7 2 16-1 19-3 4-6-2-5-13zm72-11c4-3 10-3 14 0 3 4 0 7-7 7s-10-3-7-7zm-743-253c-13-9-13-12 3-24 18-14 18-14 0-19-14-4-14-5 5-6 13-1 22 5 22 14 0 8-7 15-16 15-8 0-12 5-9 10 4 6 11 7 17 4 7-4 8-2 4 4-9 14-7 14-26 2zm50-25c0-17 5-25 18-25s14 2 3 9c-7 5-9 10-3 12s4 9-4 17c-12 11-14 9-14-13zm52 0c0-16 2-24 5-17 3 9 9 10 17 3s12-3 14 15c1 13-3 24-9 24-5 0-7-4-4-10 3-5 2-10-4-10-5 0-12 6-14 13-3 6-5-1-5-18zm83 15c3-5 0-10-8-10s-17-7-21-15c-5-13-2-13 19 1s26 34 9 34c-3 0-2-4 1-10zm50-9c-8-15 3-31 21-31 9 0 14 7 12 17-4 20-24 28-33 14zm25-11c0-5-4-10-10-10-5 0-10 5-10 10 0 6 5 10 10 10 6 0 10-4 10-10zm27 2c1-8 3-16 3-18s5-4 10-4c6 0 10 10 10 23 0 16-3 18-9 8-5-7-11-9-13-5-3 5-3 3-1-4zm38 8c-9-14 3-30 23-29 11 0 12 3 5 6-7 2-13 9-13 14 0 6 5 7 10 4 6-3 10-1 10 4 0 14-27 14-35 1zm45-12c0-12 1-19 3-17 1 2 9 12 16 22 12 14 11 17-3 17-10 0-16-8-16-22zm47 3c3-12 9-21 13-21 10 0 22 31 15 38-3 3-5 0-5-8 0-10-3-10-14-1-12 10-13 8-9-8zm45-1c0-14 2-19 5-12 2 6 2 18 0 25-3 6-5 1-5-13zm30 0c0-14 2-19 5-12 2 6 2 18 0 25-3 6-5 1-5-13zm18 10c0-7 3-10 7-7 3 4 3 10 0 14-4 3-7 0-7-7zm28-12c3-14 7-16 18-7s14 8 14-2c0-11 2-11 10 1 5 8 10 20 10 25 0 6-5 3-10-5s-10-10-10-5c0 6-8 11-19 11-12 0-17-6-13-18zm-534-190c-4-7-3-8 4-4 12 7 16 16 8 16-3 0-8-5-12-12zm166 2c0-5 5-10 11-10 5 0 7 5 4 10-3 6-8 10-11 10-2 0-4-4-4-10zm-135-9c-3-5 0-13 6-17 7-4 9-3 5 4-3 5 0 13 6 15 9 4 10 6 1 6-6 1-14-3-18-8zm38-6c0-8 4-15 9-15 4 0 8 7 8 15s-4 15-8 15c-5 0-9-7-9-15zm62 6c-3-5-2-12 3-15s9 1 9 9c0 17-3 19-12 6zm85-6c0-8 2-15 4-15s6 7 10 15c3 8 1 15-4 15-6 0-10-7-10-15zm35 6c-3-5 0-13 6-17 7-4 9-3 5 4-3 5 0 13 6 15 9 4 10 6 1 6-6 1-14-3-18-8zm38-18c4-3 10-3 14 0 3 4 0 7-7 7s-10-3-7-7zm30 0c4-3 10-3 14 0 3 4 0 7-7 7s-10-3-7-7zm817-593c0-5 5-10 10-10 6 0 10 5 10 10 0 6-4 10-10 10-5 0-10-4-10-10z"/></g></svg><svg xmlns="http://www.w3.org/2000/svg" width="2550" height="3300" version="1.0" viewBox="0 0 2550 3300"><g fill="#503948" transform="matrix(.9659 0 0 -.96774 0 3300)"><path d="M312 1713c0-764 3-1376 5-1360l4 27h969V70h1350v176c0 157-2 178-17 190-17 13-17 15-1 28 16 12 18 36 17 260l-1 246H1290l-1 903c-1 496-1 906 0 910s-6 10-14 13c-8 4-15 11-15 16 0 6 7 8 15 4 12-4 15 3 15 34v40h1350v46c0 36-3 44-12 37-12-9-76-8-86 1-2 3 1 13 7 23s11 13 11 6 7-10 16-6c9 3 20 0 25-8 7-12 9-12 9 0 0 7 6 11 15 7 12-4 15 5 15 49v55H312V1713zm372 1301c21-8 21-43 0-51-8-3-23 1-31 10-13 13-14 19-3 31 14 18 13 18 34 10zm178-17c-24-11-38-5-28 11 3 6 16 8 28 4l22-5-22-10zm-482-2c10-12 9-15-4-15-10 0-14-4-11-10 3-5 2-10-3-10-12 0-24 29-16 41 8 13 20 11 34-6zm152-17c-9-9-12-7-12 12s3 21 12 12 9-15 0-24zm515 22c18 5 42 6 53 3 21-6 27-28 10-38-5-3-10 2-10 12 0 14-2 15-9 4-5-7-14-10-20-7-6 4-11 1-11-6-1-8-6-6-15 6-8 11-15 14-15 8 0-7-7-12-15-12s-15 5-15 11-7 3-16-5c-17-18-30-20-38-8-8 13 11 35 23 28 6-4 11-2 11 4 0 7 6 8 16 2 9-5 32-6 51-2zm247 4c9-3 13-11 9-18-3-6-1-6 8 2 30 27 79-2 50-31-8-8-11-6-12 9 0 10-3 14-5 8-7-17-68-1-72 19-4 19-1 20 22 11zm216-38c-8-8-14-7-21 7-9 15-12 16-25 2-9-8-21-12-27-8-7 4-22 6-33 5-12-2-24 3-27 11-3 9 6 13 34 14 27 1 37-3 32-11-4-6 1-5 10 2 9 8 20 11 25 9 4-3 14-2 22 3 19 12 27-17 10-34zm76 37c-3-4 3-12 15-19 21-11 21-11-10-16-36-5-55 17-30 33 17 10 35 12 25 2zm53-17c0-12-3-15-6-8-2 6-11 12-19 12-9 0-13 4-10 8 11 17 36 8 35-12zm151 10c11-3 20 0 20 5 0 13 59 2 79-15 11-8 13-8 8 1-5 8 0 11 13 10 11-1 20-6 20-12 0-5 4-4 9 4s18 12 30 8c12-3 21-1 21 3 0 5 13 5 29 0 15-4 40-5 56-3 17 4 31 1 37-8 7-11 11-11 15-1 2 6 11 12 19 12s14-6 14-12c0-7 7-4 16 7 13 17 16 18 25 5 8-11 12-12 15-3 4 8 13 9 27 4 12-4 28-6 36-3 10 3 11 0 5-9-7-12-5-12 9 0 12 10 17 10 17 2s6-7 16 3c21 21 24 20 23-6 0-13-3-17-6-9-4 10-7 11-13 1-12-20-70-23-77-4-3 9-8 11-12 6-8-14-91-22-91-9 0 5-6 4-14-2-9-7-17-8-20-2-3 5-16 7-29 5-20-4-21-4-2 5 20 9 20 10-1 10-12 1-25-8-32-21l-11-23v23c-1 21-21 33-21 12 0-5-11-9-25-8s-25 7-25 13c0 5-4 4-9-4-13-20-100-21-111-1-5 8-10 11-10 5 0-5-5-3-10 5-7 12-11 10-19-10-8-22-10-22-11-5-1 18-3 17-12-5l-11-25-5 24c-3 19-6 21-13 10s-9-11-9-1-3 10-15-2c-9-8-27-13-43-11-15 2-30 4-34 4-5 1-8 9-8 18 0 13 3 14 12 5 7-7 17-12 23-12 5 0 3 5-5 10-13 8-13 10 2 10 9 0 19-6 22-12 4-10 9-9 18 4 6 9 20 14 30 12s27-6 38-8zm671-10c24 15 79 15 73 0-3-7-10-13-17-13-7-1-33-3-60-6-26-2-50-1-52 3-3 5-13 7-23 5-11-1-12 0-2 3 12 4 11 7-5 14-19 8-19 8 1 4 12-2 28 0 35 5 8 4 17 1 24-8 8-11 17-13 26-7zm-1301 4c-9-6-10-10-3-10 6 0 15 5 18 10 9 15 27 12 19-2-6-10-4-10 7 0 19 17 56 15 63-4 4-9 4-19 1-22-2-3-8 3-11 12-5 14-9 15-15 4-7-10-9-10-9 2s-2 12-9 2c-10-16-68-25-76-11-8 12 3 29 18 29 7 0 6-4-3-10zm1297 3c-4-3-10-3-14 0-3 4 0 7 7 7s10-3 7-7zm-1574-24c-5-5-20-5-33-2l-25 7 25 6c28 8 46 2 33-11zm-507-156c10 28 24 19 24-15 0-23-3-29-9-19-7 11-9 11-14 0-5-12-7-12-15 0-8 11-10 11-15 0-3-8-6 2-6 21 0 33 1 34 14 16 13-17 15-17 21-3zm259-2c10 15 35-9 28-27-6-17-33-19-33-1 0 8-4 7-10-3-8-13-10-12-10 3 0 9-4 17-9 17s-12-8-14-17c-3-10-5-3-6 16-1 33-1 33 23 17 16-10 27-12 31-5zm321 7c5-8 1-9-12-4-15 6-17 5-6-6 10-10 17-10 32 0 13 8 21 8 26 1 4-8 9-8 17 0 14 14 38-5 30-25-6-17-33-19-33-1 0 8-3 9-8 1-4-6-23-11-43-12-33-1-36 1-37 28-1 31 20 41 34 18zm220-15c15-16 22-21 15-11-13 18-7 24 29 26 20 1 25-3 25-22 0-21-4-24-42-23-32 0-43 5-44 16 0 12-3 11-9-4-8-18-9-18-10 5l-1 25-14-25c-9-16-15-20-15-10-1 10-3 11-7 3-7-19-20-16-26 6-3 13 1 21 14 24 11 3 19 0 19-6s8-4 17 6c21 21 17 22 49-10zm-722 5c3 5 19 9 36 10 26 1 29-2 19-14-8-10-8-14 0-14 6 0 11-4 11-10 0-15-30-12-31 3 0 10-2 10-6 0-2-7-11-13-19-13s-14 6-15 13c0 10-2 10-6 0-7-20-33-15-33 5 0 25 11 34 26 21 7-5 15-6 18-1zm112-13c-1-33-16-33-16 0 0 14 4 25 9 25s8-11 7-25zm149 0c0-30-19-27-23 3-2 13 2 22 10 22 7 0 13-11 13-25zm45-6c0-20-24-26-35-9-8 13 14 42 26 34 5-3 9-14 9-25zm40 6c0-16-6-25-15-25-15 0-21 31-8 43 13 14 23 6 23-18zm67-6c2-22 2-22-6-4-9 18-10 18-10 2-1-10-6-15-11-12-6 4-8 11-5 16 4 5 1 9-4 9-6 0-11-8-12-17 0-11-2-13-6-5-9 23 5 42 29 39 16-3 24-11 25-28zm-387-281c0-10-4-18-10-18-5 0-10 9-10 20s-4 20-10 20c-5 0-10-9-10-20s-4-20-10-20c-11 0-14 63-4 73 10 9 54-35 54-55zm136 40c-3-13-6-31-6-40 0-10-4-18-10-18-11 0-14 63-3 73 14 15 25 6 19-15zm-96-8c0-5-4-10-9-10s-12-10-14-22c-3-17-5-14-6 10-1 22 3 32 14 32 8 0 15-4 15-10zm58-13c2-11-3-17-15-18-16 0-16-1 2-9 19-8 19-9-3-9-25-1-38 20-28 45 8 20 40 14 44-9zm92 12c0-5-4-7-10-4-5 3-10 1-10-4 0-6 7-11 15-11s15-7 15-15c0-9-9-15-24-15-21 0-24 4-22 28 5 34 3 32 21 32 8 0 15-5 15-11zm-263-31c-3-7-5-2-5 12s2 19 5 13c2-7 2-19 0-25zM1455 850c3-11 13-20 21-20 18 0 18-19-1-26-8-3-17-14-20-25-8-23-25-25-25-4 0 9-7 18-15 21-8 4-15 12-15 19s7 15 15 19c8 3 15 12 15 21 0 22 18 19 25-5zm304-27c10-17 10-17 11 0 0 9 5 17 10 17 6 0 10-8 11-17 0-11 3-13 6-5 6 15 33 16 33 1 0-8 4-8 15 1 18 15 35 5 35-21 0-20-24-26-36-8-4 8-9 7-15-2-7-11-12-12-28-2-15 10-21 10-25 0-3-9-7-8-15 3-7 10-11 11-11 3 0-7-4-13-10-13-5 0-10 14-10 30 0 33 14 39 29 13zm171-13c0-23-4-30-20-30-34 0-18 55 18 60 1 0 2-13 2-30zm285 20c3-5-1-20-10-32l-17-23 6 27c5 22 3 26-9 22-8-4-15-15-15-25 0-12-7-19-20-19-11 0-20 7-20 15s-7 15-16 15c-8 0-13-4-9-9 3-5 1-12-5-16s-10 5-10 19c0 24 3 25 40 22 22-2 43 1 46 5 7 12 31 11 39-1zm115-2c8-1 18-7 22-13 5-6 8-5 8 3 0 6 5 12 11 12 13 0 2-40-18-60-13-13-14-13-13 0 4 29 0 40-15 40-8 0-15-7-15-16 0-8-4-13-9-10s-7 15-4 26 0 20-6 20-11-11-11-25c0-36-17-31-22 6-5 30-4 31 26 26 17-3 38-7 46-9zm114-4c11-29 6-39-19-40-29-2-28-3-15 30 11 29 25 34 34 10zm40 10c9-4 16-17 15-33 0-23-1-24-9-6-7 17-9 17-9 3-2-31-21-19-21 12 0 32 1 33 24 24zm142-10c-3-9-6-22-6-30s-4-14-10-14c-5 0-10 14-10 30 0 21 5 30 16 30s14-5 10-16zm-1056-30c4-20 12-30 28-32 12-2 22-10 22-17s-10-15-22-17c-16-2-24-12-28-32-7-43-28-44-36-2-5 29-11 36-30 36-15 0-24 6-24 15s9 15 24 15c19 0 25 7 30 36 8 42 29 41 36-2zm458 9c3-17-2-21-17-20-12 1-21 8-22 17 0 10-3 9-9-5-8-18-9-17-9 8-1 25 2 28 27 25 19-2 28-9 30-25zm50-1c3-17-2-22-17-22-14 0-21 6-21 18 0 38 33 41 38 4zm510 0c4-25-25-32-34-7-4 8-10 15-15 15s-9-7-9-15-4-15-10-15c-10 0-14 33-5 42 3 3 20 5 38 4 25-1 33-7 35-24zm-468-122v-50h-180v100h180v-50zm-320 10c0-16-4-30-10-30-5 0-10 14-10 30 0 17 5 30 10 30 6 0 10-13 10-30zm-32-5c1-12-6-25-18-33-19-11-20-10-20 24 0 28 3 35 18 32 9-2 18-12 20-23zm80-3c3-17-2-22-17-22-14 0-21 6-21 18 0 38 33 41 38 4zm49-2c2-23 2-23-6-5-8 17-10 18-10 3-1-28-21-21-21 8 0 34 34 29 37-6zm195-97c-6-2-9-10-6-15 4-7 2-8-5-4-13 9-5 26 12 25 9 0 8-2-1-6zm140 0c-6-2-9-10-6-15 4-7 2-8-5-4-13 9-5 26 12 25 9 0 8-2-1-6zm-475-10c-4-3-10-3-14 0-3 4 0 7 7 7s10-3 7-7zm240-10c-4-3-7 0-7 7s3 10 7 7c3-4 3-10 0-14zm140 0c-4-3-7 0-7 7s3 10 7 7c3-4 3-10 0-14zm411-7c1-15-1-17-7-7-7 11-9 11-14 0-3-9-6-6-6 7-1 27 25 27 27 0zm-675-7c4-16 3-18-9-8-7 6-11 15-8 20 8 13 11 11 17-12zm14 4c-4-3-7 0-7 7s3 10 7 7c3-4 3-10 0-14zm62 3c9-11 9-16-1-22-7-4-10-4-6 1 4 4 3 14-3 22-6 7-9 13-6 13 2 0 10-6 16-14zm82-10c5 3 6 10 3 16-4 7-2 8 5 4 9-6 9-11 0-22-14-17-29-9-28 14 1 15 2 15 6-1 2-9 9-15 14-11zm245-3c-10-10-19 5-10 18 6 11 8 11 12 0 2-7 1-15-2-18zm49 17c3-5 0-7-9-4-8 3-16-2-19-13-4-14-5-14-6 5-1 22 22 31 34 12zm77 3c-6-3-10-8-8-12 3-4-1-8-8-8-22 0-14 23 8 24 12 1 15-1 8-4zm31-13c3-11 1-18-4-14-5 3-9 12-9 20 0 20 7 17 13-6zm14 3c-4-3-7 0-7 7s3 10 7 7c3-4 3-10 0-14zm-683-1c2-4-4-8-15-8-10 0-19 4-19 8s6 8 14 8 17-4 20-8zm593-9c-4-3-7 0-7 7s3 10 7 7c3-4 3-10 0-14zm266 2c-3-9-8-14-10-11-3 3-2 9 2 15 9 16 15 13 8-4zm-828-5c3-5 4-10 1-10s-8 5-11 10c-3 6-4 10-1 10s8-4 11-10zm40 0c3-5 4-10 1-10s-8 5-11 10c-3 6-4 10-1 10s8-4 11-10zm265-4c-7-7-13-7-20 0-6 6-3 10 10 10s16-4 10-10zm-223-73c-4-3-7 0-7 7s3 10 7 7c3-4 3-10 0-14zm60-15c-3-7-5-2-5 12s2 19 5 13c2-7 2-19 0-25zm283 22c0-5-5-10-11-10-5 0-7 5-4 10 3 6 8 10 11 10 2 0 4-4 4-10zm357-22c-3-7-5-2-5 12s2 19 5 13c2-7 2-19 0-25zm-819-9c-3-8-7-3-11 10-4 17-3 21 5 13 5-5 8-16 6-23zm41 14c0-11-3-13-6-5-2 6-9 10-14 6-5-3-9 0-9 5 0 6 7 11 15 11s15-8 14-17zm41-4c0-24-23-21-28 4-2 10 3 17 12 17 10 0 16-9 16-21zm146 9c5-8 2-9-9-5-10 3-17 2-17-2 0-5 6-12 13-14 9-4 9-6 0-6-15-1-26 16-18 29s22 13 31-2zm95-13c5 4 9 1 9-5 0-17-25-6-26 11-1 9 1 10 3 1 3-7 9-10 14-7zm39 15c-13-9-13-11 0-20 9-6 10-10 3-10-6 0-15 5-18 10-8 13 3 30 18 30 7 0 6-4-3-10zm135-10c0-7-7-15-15-17-13-4-13-3 0 6 13 10 13 12 0 22-13 9-13 10 0 6 8-2 15-10 15-17zm22-2c-3-8-6-5-6 6-1 11 2 17 5 13 3-3 4-12 1-19zm88 12c3-6-1-7-9-4-18 7-21 14-7 14 6 0 13-4 16-10zm40-10c0-7-7-15-15-17-13-4-13-3 0 6 13 10 13 12 0 22-13 9-13 10 0 6 8-2 15-10 15-17zm35-12c0-19-16-5-17 14-2 18 0 20 7 8 5-8 10-18 10-22zm45 22c3-6-1-7-9-4-9 3-16 2-16-4s6-13 13-15c9-4 9-6 0-6-15-1-26 16-18 29s22 13 30 0zm66-4c5 3 9 0 9-6 0-7-7-10-15-6-8 3-15 0-15-6s-2-9-5-6-2 13 2 24 8 13 11 6c2-7 8-10 13-6zm-646-17c-4-5-12-9-18-8-9 0-8 2 1 6 6 2 9 10 6 15-4 7-2 8 5 4 6-4 9-12 6-17zm116-2c-10-9-11-8-5 6 3 10 9 15 12 12s0-11-7-18zm26 6c-4-3-7 0-7 7s3 10 7 7c3-4 3-10 0-14zm-310-10c-4-3-7 0-7 7s3 10 7 7c3-4 3-10 0-14zm19-75c4-7 3-8-4-4s-12 0-12-10-3-15-6-11c-7 6 2 37 10 37 3 0 8-5 12-12zm61-5c-4-3-7 0-7 7s3 10 7 7c3-4 3-10 0-14zm-40-15c-3-8-6-5-6 6-1 11 2 17 5 13 3-3 4-12 1-19zm-23-140c7-5 5-8-6-8-14 0-18 8-17 33 2 27 2 28 6 7 3-14 10-28 17-32zm56 19c0-8-3-8-9 1-7 11-9 11-14-2-3-8-1-17 6-20 9-3 8-5-1-5-18-1-27 30-11 39 15 10 29 4 29-13zm40-8c0-21-15-25-26-7-5 7-3 8 6 3 10-6 12-3 8 13-4 12-2 20 3 16 5-3 9-14 9-25zm79 3c0-14-2-13-8 3-8 19-8 19-19 0-10-17-11-17-12-3 0 16 19 29 33 21 4-2 7-12 6-21zm90 0c-1-16-2-16-6 0-3 11-11 15-21 12-14-5-14-4-2 4 18 13 30 6 29-16zm43-14c-16-16-37 4-28 28 6 16 8 16 23 1 13-13 15-20 5-29zm78 19c0-8-3-8-9 1-7 11-9 11-14-2-3-8-1-17 6-20 9-3 9-5 0-5-19-1-26 18-13 34s30 11 30-8zm-263 6c-4-3-10-3-14 0-3 4 0 7 7 7s10-3 7-7zm90-15c-3-8-6-5-6 6-1 11 2 17 5 13 3-3 4-12 1-19zm252 19c-2-1-13-9-24-17-19-14-19-14-6 3 7 9 18 17 24 17s8-1 6-3zM660 2985c0-9 5-15 11-13s11 8 11 13-5 11-11 13-11-4-11-13zm833-2c4-3 10-3 14 0 3 4 0 7-7 7s-10-3-7-7zm370 0c4-3 10-3 14 0 3 4 0 7-7 7s-10-3-7-7zm-930-200c4-3 10-3 14 0 3 4 0 7-7 7s-10-3-7-7zm-290-280c4-3 10-3 14 0 3 4 0 7-7 7s-10-3-7-7zm788-1677c-8-10-8-16 1-24 19-15 40 9 22 25-9 9-15 9-23-1zm472-23c4-3 10-3 14 0 3 4 0 7-7 7s-10-3-7-7zm-353-20c0-6-6-18-13-25-11-11-11-16 3-30 15-16 16-16 26 0 7 12 6 24-3 42-7 14-13 20-13 13zm500 16c0-5 5-7 10-4 6 3 10 8 10 11 0 2-4 4-10 4-5 0-10-5-10-11zm-77-114c0-8 3-13 5-10 3 3 12-1 20-8 13-11 14-9 1 11-16 26-26 28-26 7zm47-10c0-8 2-15 4-15s6 7 10 15c3 8 1 15-4 15-6 0-10-7-10-15zm45 4c-4-5-4-13-1-16 3-4 6 0 6 8 0 11 2 11 10-1 6-9 10-10 10-3 0 17-17 25-25 12zm-315 1c0-7 3-10 7-7 3 4 3 10 0 14-4 3-7 0-7-7zm70-230c0-7 3-10 7-7 3 4 3 10 0 14-4 3-7 0-7-7zm220-234c0-9 5-16 10-16 6 0 10 4 10 9 0 6-4 13-10 16-5 3-10-1-10-9zm73 2467c4-3 10-3 14 0 3 4 0 7-7 7s-10-3-7-7zm140 0c4-3 10-3 14 0 3 4 0 7-7 7s-10-3-7-7zm-771-43c0-25 2-37 5-27 6 21 12 21 35 0 19-17 24-8 9 16-6 9-6 22 0 33s6 18 0 18c-5 0-11-7-15-15-7-20-24-19-29 3-3 9-5-3-5-28zm478 30c0-5-9-10-20-10-16 0-20-7-20-30 0-25 4-30 25-30 23 0 25 4 25 40 0 22-2 40-5 40s-5-4-5-10zm-2-37c-5-25-28-28-28-4 0 12 6 21 16 21 9 0 14-7 12-17zm72 7c0-39 2-41 26-38 35 4 53 31 38 56-6 9-23 18-38 20-24 3-26 1-26-38zm45-1c0-14-6-24-15-24-12 0-17 21-11 51 3 17 26-6 26-27zm82 34c-11-10-8-73 3-73 6 0 10 11 10 25s6 25 13 25c9 0 8 3-2 9-11 7-11 9 0 14 11 4 10 6-2 6-9 1-19-2-22-6zm50 0c-11-10-8-73 3-73 6 0 10 11 10 25s6 25 13 25c9 0 8 3-2 9-11 7-11 9 0 14 11 4 10 6-2 6-9 1-19-2-22-6zm225-30c2-21 9-38 18-41 13-5 13-3 1 11-7 9-11 28-9 42 3 14 1 25-4 25s-8-17-6-37zm40 0c2-27 8-39 21-41 9-2 17 2 17 8s-4 8-10 5c-5-3-10 3-10 14 0 10 5 21 10 23 6 2 1 9-11 16-19 12-20 11-17-25zm161-3c0-25 2-35 4-22 2 12 2 32 0 45-2 12-4 2-4-23zm-1079 6c-10-25 3-46 28-45 17 1 18 2 6 6-25 6-22 23 3 23 27 0 19 24-9 28-13 2-25-3-28-12zm33-3c-4-3-10-3-14 0-3 4 0 7 7 7s10-3 7-7zm38-9c4-16 8-35 8-41 0-14 13-17 20-5 3 4 8 23 11 42 7 35 7 35-8 10-11-18-15-21-16-8 0 9-5 20-11 24-9 5-10-1-4-22zm66 14c-1-23 9-48 20-48 5 0 9 8 9 18 1 15 2 15 15-2 17-23 21-21 30 19 7 29 7 29-8 10-15-18-16-18-17-2 0 9-4 17-9 17s-12-8-16-17c-7-17-8-16-15 2-7 16-9 17-9 3zm96-2c-10-26 4-47 27-44 15 2 21 10 21 28 0 29-38 41-48 16zm38-16c0-7-6-15-12-17-8-3-13 4-13 17s5 20 13 18c6-3 12-11 12-18zm36-2c1-31 1-31 8-8 4 14 13 24 19 23 7-2 12 2 12 7 0 6-9 10-20 10-16 0-20-6-19-32zm261 2c0-19 2-27 5-17 2 9 2 25 0 35-3 9-5 1-5-18zm128 0c0-16 5-30 10-30 6 0 10 14 10 30 0 17-4 30-10 30-5 0-10-13-10-30zm40 0c0-23 5-30 19-30 11 0 23 5 27 11 4 8 0 9-15 4-17-5-21-2-21 15s4 20 21 15c15-5 19-4 15 4-4 6-16 11-27 11-14 0-19-7-19-30zm65 8c1-13 3-26 4-30 0-5 12-8 26-8 21 0 25 5 25 30 0 17-4 30-10 30-5 0-10-11-10-25s-4-25-10-25c-5 0-10 11-10 25s-4 25-9 25c-4 0-7-10-6-22zm175-9c5-18 7-36 4-40-3-5-1-9 5-9 12 0 20 13 31 50 5 18 5 30-1 30-5 0-9-9-9-20s-4-20-10-20c-5 0-10 9-10 20s-4 20-9 20c-6 0-6-12-1-31zm-989-134c1-36 3-43 8-26 9 35 29 37 34 4 4-22 5-20 3 7 0 21-6 35-14 35-7 0-17 7-22 15-7 11-9 0-9-35zm209 0c0-37 15-54 33-36 8 8 6 11-6 11-9 0-17 7-17 15s5 15 10 15c15 0 12 17-5 24-12 4-15-3-15-29zm56 18c-6-14-5-15 5-6 7 7 10 15 7 18s-9-2-12-12zm31 10c-4-3-7-11-7-17s5-5 12 2c6 6 9 14 7 17-3 3-9 2-12-2zm-357-19c-11-13-10-16 8-21 12-3 22-10 22-15 0-6-7-8-15-4-8 3-15 1-15-5s8-9 17-7c23 4 30 38 9 38-9 0-16 4-16 10 0 5 7 6 17 3 11-4 14-3 9 5-10 16-21 15-36-4zm139 0c-16-20 0-49 27-49 22 0 31 30 14 50-16 19-24 19-41-1zm34-10c8-8-3-34-14-34-5 0-9 9-9 20 0 19 11 26 23 14zm38-14c2-31 2-32 6-7 3 20 9 27 19 23 8-3 14 1 14 9s-9 13-20 12c-16-1-20-8-19-37zm457-657c23-2 42-9 42-14s-14-37-31-70c-17-34-28-64-25-67s8-3 10-1c6 7 76 148 76 154 0 3-26 4-57 3-50-1-52-2-15-5zm3-269c0-11 3-14 6-6 3 7 2 16-1 19-3 4-6-2-5-13zm72-11c4-3 10-3 14 0 3 4 0 7-7 7s-10-3-7-7zm-743-253c-13-9-13-12 3-24 18-14 18-14 0-19-14-4-14-5 5-6 13-1 22 5 22 14 0 8-7 15-16 15-8 0-12 5-9 10 4 6 11 7 17 4 7-4 8-2 4 4-9 14-7 14-26 2zm50-25c0-17 5-25 18-25s14 2 3 9c-7 5-9 10-3 12s4 9-4 17c-12 11-14 9-14-13zm52 0c0-16 2-24 5-17 3 9 9 10 17 3s12-3 14 15c1 13-3 24-9 24-5 0-7-4-4-10 3-5 2-10-4-10-5 0-12 6-14 13-3 6-5-1-5-18zm83 15c3-5 0-10-8-10s-17-7-21-15c-5-13-2-13 19 1s26 34 9 34c-3 0-2-4 1-10zm50-9c-8-15 3-31 21-31 9 0 14 7 12 17-4 20-24 28-33 14zm25-11c0-5-4-10-10-10-5 0-10 5-10 10 0 6 5 10 10 10 6 0 10-4 10-10zm27 2c1-8 3-16 3-18s5-4 10-4c6 0 10 10 10 23 0 16-3 18-9 8-5-7-11-9-13-5-3 5-3 3-1-4zm38 8c-9-14 3-30 23-29 11 0 12 3 5 6-7 2-13 9-13 14 0 6 5 7 10 4 6-3 10-1 10 4 0 14-27 14-35 1zm45-12c0-12 1-19 3-17 1 2 9 12 16 22 12 14 11 17-3 17-10 0-16-8-16-22zm47 3c3-12 9-21 13-21 10 0 22 31 15 38-3 3-5 0-5-8 0-10-3-10-14-1-12 10-13 8-9-8zm45-1c0-14 2-19 5-12 2 6 2 18 0 25-3 6-5 1-5-13zm30 0c0-14 2-19 5-12 2 6 2 18 0 25-3 6-5 1-5-13zm18 10c0-7 3-10 7-7 3 4 3 10 0 14-4 3-7 0-7-7zm28-12c3-14 7-16 18-7s14 8 14-2c0-11 2-11 10 1 5 8 10 20 10 25 0 6-5 3-10-5s-10-10-10-5c0 6-8 11-19 11-12 0-17-6-13-18zm-534-190c-4-7-3-8 4-4 12 7 16 16 8 16-3 0-8-5-12-12zm166 2c0-5 5-10 11-10 5 0 7 5 4 10-3 6-8 10-11 10-2 0-4-4-4-10zm-135-9c-3-5 0-13 6-17 7-4 9-3 5 4-3 5 0 13 6 15 9 4 10 6 1 6-6 1-14-3-18-8zm38-6c0-8 4-15 9-15 4 0 8 7 8 15s-4 15-8 15c-5 0-9-7-9-15zm62 6c-3-5-2-12 3-15s9 1 9 9c0 17-3 19-12 6zm85-6c0-8 2-15 4-15s6 7 10 15c3 8 1 15-4 15-6 0-10-7-10-15zm35 6c-3-5 0-13 6-17 7-4 9-3 5 4-3 5 0 13 6 15 9 4 10 6 1 6-6 1-14-3-18-8zm38-18c4-3 10-3 14 0 3 4 0 7-7 7s-10-3-7-7zm30 0c4-3 10-3 14 0 3 4 0 7-7 7s-10-3-7-7zm817-593c0-5 5-10 10-10 6 0 10 5 10 10 0 6-4 10-10 10-5 0-10-4-10-10z"/></g></svg><svg xmlns="http://www.w3.org/2000/svg" width="2550" height="3300" version="1.0" viewBox="0 0 2550 3300"><g fill="#0c44bf" transform="matrix(.9659 0 0 -.96774 0 3300)"><path d="M320 3090c0-7 288-10 845-10s845 3 845 10-288 10-845 10-845-3-845-10zm2075 0c4-6 57-10 126-10 73 0 119 4 119 10s-49 10-126 10c-81 0-123-4-119-10zm-1590-55c-33-32-31-60 4-96l29-29h1802v28c0 28-1 29-50 26-41-2-50 1-51 14 0 15-1 15-7 2s-28-16-125-15c-65 0-121-3-123-7-9-15-25-8-34 15-6 16-9 17-9 5-1-14-11-17-63-16-35 0-75 4-90 9-19 5-28 3-32-7-3-8-10-14-15-14-6 0-8 6-5 14s0 17-6 21c-6 3-9 1-8-7 2-10-18-13-84-14-60-1-88 2-88 10 0 6-5 4-10-4-9-13-11-13-20 0-8 13-10 13-10-2 0-25-40-19-41 7 0 15-2 16-7 5-6-12-29-15-109-17-57-1-103 1-103 6 0 4-7 8-15 8s-15-3-15-7-31-7-70-7c-39 1-70 6-70 11s-7 1-15-10c-8-10-15-14-15-8 0 11-60 12-78 0-6-3-13-3-15 2-3 4-62 7-131 5-109-1-125 1-129 15-4 15-5 15-6 0-1-17-31-25-44-12-9 10 4 34 19 34 8 0 14 5 14 11 0 8 4 8 14-1 16-13 64-11 84 3 7 6 12 5 12-2 0-6 6-11 14-11s17-6 19-12c4-10 8-10 15 0s27 13 71 10c45-2 62 1 66 11s8 11 20 1c18-15 193-14 212 1 10 9 13 8 13-5 0-19 13-20 43-4 25 14 97 21 97 9 0-4 16-8 35-9 19-2 35 2 35 7 0 7 9 6 26-1 18-8 30-9 42-1 10 5 26 7 37 2 11-4 37-8 58-8 22-1 37-6 37-13 0-9 3-9 9 1 7 11 34 13 116 12 59-1 112-4 118-8 6-3 7-1 3 5-3 6-2 13 3 16 5 4 13 1 17-5 4-8 9-7 15 2 7 11 11 11 17 2 10-16 171-16 190-1 8 7 12 7 12-1 0-7 22-11 60-11s60 4 60 11c0 8 5 8 15-1 8-7 15-10 15-7s14 2 30-3c29-8 30-8 30 26v34H829l-24-25zm87-12c18-17 26-59 8-48-6 4-7-1-3-11 5-14 3-16-11-11-11 4-15 3-10-4 4-7-4-9-21-7-35 4-50 27-41 62 5 19 11 26 22 22 9-3 12-1 9 4-10 17 27 11 47-7zm-29-10c4-3 10-3 14 0 3 4 0 7-7 7s-10-3-7-7zm-200 10c4-3 10-3 14 0 3 4 0 7-7 7s-10-3-7-7zm-33-33c0-7 3-10 7-7 3 4 3 10 0 14-4 3-7 0-7-7zm30 0c0-7 3-10 7-7 3 4 3 10 0 14-4 3-7 0-7-7zm1013-7c4-3 10-3 14 0 3 4 0 7-7 7s-10-3-7-7zm190 0c4-3 10-3 14 0 3 4 0 7-7 7s-10-3-7-7zm-235-90c189-2 495-2 680 0 185 1 31 2-343 2s-526-1-337-2zm-825-181-483-2V380h970V70h1350v176c0 157-2 178-17 190-17 13-17 15-1 28 16 12 18 36 17 260l-1 246H1290v759c0 496-3 762-10 766-13 8-13 42 0 47 7 2 10 36 8 88l-3 85-482-3zm-361-153c2-7 29-12 68-11 39 0 68-5 72-11 5-7 8-3 8 11 0 15 6 22 20 22 11 0 20-4 20-10 0-5 11-10 24-10 21 0 24-4 23-32-2-26-6-33-22-33-13 0-21 8-23 23-4 27-22 30-22 3 0-28-20-37-21-9v23l-10-23c-11-29-43-26-47 6-2 12-9 22-17 22s-11-7-8-19c3-10 0-22-6-25-7-5-12 3-12 21-2 23-2 24-6 6-5-28-23-30-23-3 0 11-4 20-10 20-5 0-10-12-10-26s-4-23-10-19c-13 8-13 85-1 85 5 0 11-5 13-11zm-32-39c0-25-4-30-25-30-16 0-25 6-25 15 0 8 4 15 10 15 5 0 7 7 4 15-4 10 0 15 15 15 17 0 21-6 21-30zm424 22c3-5 19-8 36-7s33-2 36-7c3-4 15-2 26 6 17 13 23 13 34 1 8-7 14-20 15-27 0-7 4-4 9 7 8 19 9 19 9-1 1-19-5-22-36-22-21 0-41 5-45 11-6 9-8 9-8 0 0-18-29-16-36 2-8 21-24 19-25-2 0-16-1-16-8 1s-8 17-23 2c-9-9-19-16-22-16-8 0-7 45 1 53 9 10 31 9 37-1zm206-12c0-5-4-10-10-10-5 0-10-5-10-11 0-5 5-7 10-4 6 3 10 1 10-4 0-6-4-11-9-11-15 0-24 19-17 35 6 17 26 20 26 5zm27-4c-3-7 0-19 6-25 8-8 7-11-6-11-11 0-17 8-17 25 0 14 5 25 11 25s9-6 6-14zm75-18c-9-9-15-9-24 0s-7 12 12 12 21-3 12-12zm313-1658c3-11 13-20 21-20 18 0 18-19-1-26-8-3-17-14-20-25-8-23-25-25-25-4 0 9-7 18-15 21-8 4-15 12-15 19s7 15 15 19c8 3 15 12 15 21 0 22 18 19 25-5zm304-27c10-17 10-17 11 0 0 9 5 17 10 17 6 0 10-8 11-17 0-11 3-13 6-5 6 15 33 16 33 1 0-8 4-8 15 1 18 15 35 5 35-21 0-20-24-26-36-8-4 8-9 7-15-2-7-11-12-12-28-2-15 10-21 10-25 0-3-9-7-8-15 3-7 10-11 11-11 3 0-7-4-13-10-13-5 0-10 14-10 30 0 33 14 39 29 13zm171-13c0-23-4-30-20-30-34 0-18 55 18 60 1 0 2-13 2-30zm285 20c3-5-1-20-10-32l-17-23 6 27c5 22 3 26-9 22-8-4-15-15-15-25 0-12-7-19-20-19-11 0-20 7-20 15s-7 15-16 15c-8 0-13-4-9-9 3-5 1-12-5-16s-10 5-10 19c0 24 3 25 40 22 22-2 43 1 46 5 7 12 31 11 39-1zm115-2c8-1 18-7 22-13 5-6 8-5 8 3 0 6 5 12 11 12 13 0 2-40-18-60-13-13-14-13-13 0 4 29 0 40-15 40-8 0-15-7-15-16 0-8-4-13-9-10s-7 15-4 26 0 20-6 20-11-11-11-25c0-36-17-31-22 6-5 30-4 31 26 26 17-3 38-7 46-9zm114-4c11-29 6-39-19-40-29-2-28-3-15 30 11 29 25 34 34 10zm40 10c9-4 16-17 15-33 0-23-1-24-9-6-7 17-9 17-9 3-2-31-21-19-21 12 0 32 1 33 24 24zm142-10c-3-9-6-22-6-30s-4-14-10-14c-5 0-10 14-10 30 0 21 5 30 16 30s14-5 10-16zm-1056-30c4-20 12-30 28-32 12-2 22-10 22-17s-10-15-22-17c-16-2-24-12-28-32-7-43-28-44-36-2-5 29-11 36-30 36-15 0-24 6-24 15s9 15 24 15c19 0 25 7 30 36 8 42 29 41 36-2zm458 9c3-17-2-21-17-20-12 1-21 8-22 17 0 10-3 9-9-5-8-18-9-17-9 8-1 25 2 28 27 25 19-2 28-9 30-25zm50-1c3-17-2-22-17-22-14 0-21 6-21 18 0 38 33 41 38 4zm510 0c4-25-25-32-34-7-4 8-10 15-15 15s-9-7-9-15-4-15-10-15c-10 0-14 33-5 42 3 3 20 5 38 4 25-1 33-7 35-24zm-468-122v-50h-180v100h180v-50zm-320 10c0-16-4-30-10-30-5 0-10 14-10 30 0 17 5 30 10 30 6 0 10-13 10-30zm-32-5c1-12-6-25-18-33-19-11-20-10-20 24 0 28 3 35 18 32 9-2 18-12 20-23zm80-3c3-17-2-22-17-22-14 0-21 6-21 18 0 38 33 41 38 4zm49-2c2-23 2-23-6-5-8 17-10 18-10 3-1-28-21-21-21 8 0 34 34 29 37-6zm195-97c-6-2-9-10-6-15 4-7 2-8-5-4-13 9-5 26 12 25 9 0 8-2-1-6zm140 0c-6-2-9-10-6-15 4-7 2-8-5-4-13 9-5 26 12 25 9 0 8-2-1-6zm-475-10c-4-3-10-3-14 0-3 4 0 7 7 7s10-3 7-7zm240-10c-4-3-7 0-7 7s3 10 7 7c3-4 3-10 0-14zm140 0c-4-3-7 0-7 7s3 10 7 7c3-4 3-10 0-14zm411-7c1-15-1-17-7-7-7 11-9 11-14 0-3-9-6-6-6 7-1 27 25 27 27 0zm-675-7c4-16 3-18-9-8-7 6-11 15-8 20 8 13 11 11 17-12zm14 4c-4-3-7 0-7 7s3 10 7 7c3-4 3-10 0-14zm62 3c9-11 9-16-1-22-7-4-10-4-6 1 4 4 3 14-3 22-6 7-9 13-6 13 2 0 10-6 16-14zm82-10c5 3 6 10 3 16-4 7-2 8 5 4 9-6 9-11 0-22-14-17-29-9-28 14 1 15 2 15 6-1 2-9 9-15 14-11zm245-3c-10-10-19 5-10 18 6 11 8 11 12 0 2-7 1-15-2-18zm49 17c3-5 0-7-9-4-8 3-16-2-19-13-4-14-5-14-6 5-1 22 22 31 34 12zm77 3c-6-3-10-8-8-12 3-4-1-8-8-8-22 0-14 23 8 24 12 1 15-1 8-4zm31-13c3-11 1-18-4-14-5 3-9 12-9 20 0 20 7 17 13-6zm14 3c-4-3-7 0-7 7s3 10 7 7c3-4 3-10 0-14zm-683-1c2-4-4-8-15-8-10 0-19 4-19 8s6 8 14 8 17-4 20-8zm593-9c-4-3-7 0-7 7s3 10 7 7c3-4 3-10 0-14zm266 2c-3-9-8-14-10-11-3 3-2 9 2 15 9 16 15 13 8-4zm-828-5c3-5 4-10 1-10s-8 5-11 10c-3 6-4 10-1 10s8-4 11-10zm40 0c3-5 4-10 1-10s-8 5-11 10c-3 6-4 10-1 10s8-4 11-10zm265-4c-7-7-13-7-20 0-6 6-3 10 10 10s16-4 10-10zm-223-73c-4-3-7 0-7 7s3 10 7 7c3-4 3-10 0-14zm60-15c-3-7-5-2-5 12s2 19 5 13c2-7 2-19 0-25zm283 22c0-5-5-10-11-10-5 0-7 5-4 10 3 6 8 10 11 10 2 0 4-4 4-10zm357-22c-3-7-5-2-5 12s2 19 5 13c2-7 2-19 0-25zm-819-9c-3-8-7-3-11 10-4 17-3 21 5 13 5-5 8-16 6-23zm41 14c0-11-3-13-6-5-2 6-9 10-14 6-5-3-9 0-9 5 0 6 7 11 15 11s15-8 14-17zm41-4c0-24-23-21-28 4-2 10 3 17 12 17 10 0 16-9 16-21zm146 9c5-8 2-9-9-5-10 3-17 2-17-2 0-5 6-12 13-14 9-4 9-6 0-6-15-1-26 16-18 29s22 13 31-2zm95-13c5 4 9 1 9-5 0-17-25-6-26 11-1 9 1 10 3 1 3-7 9-10 14-7zm39 15c-13-9-13-11 0-20 9-6 10-10 3-10-6 0-15 5-18 10-8 13 3 30 18 30 7 0 6-4-3-10zm135-10c0-7-7-15-15-17-13-4-13-3 0 6 13 10 13 12 0 22-13 9-13 10 0 6 8-2 15-10 15-17zm22-2c-3-8-6-5-6 6-1 11 2 17 5 13 3-3 4-12 1-19zm88 12c3-6-1-7-9-4-18 7-21 14-7 14 6 0 13-4 16-10zm40-10c0-7-7-15-15-17-13-4-13-3 0 6 13 10 13 12 0 22-13 9-13 10 0 6 8-2 15-10 15-17zm35-12c0-19-16-5-17 14-2 18 0 20 7 8 5-8 10-18 10-22zm45 22c3-6-1-7-9-4-9 3-16 2-16-4s6-13 13-15c9-4 9-6 0-6-15-1-26 16-18 29s22 13 30 0zm66-4c5 3 9 0 9-6 0-7-7-10-15-6-8 3-15 0-15-6s-2-9-5-6-2 13 2 24 8 13 11 6c2-7 8-10 13-6zm-646-17c-4-5-12-9-18-8-9 0-8 2 1 6 6 2 9 10 6 15-4 7-2 8 5 4 6-4 9-12 6-17zm116-2c-10-9-11-8-5 6 3 10 9 15 12 12s0-11-7-18zm26 6c-4-3-7 0-7 7s3 10 7 7c3-4 3-10 0-14zm-310-10c-4-3-7 0-7 7s3 10 7 7c3-4 3-10 0-14zm19-75c4-7 3-8-4-4s-12 0-12-10-3-15-6-11c-7 6 2 37 10 37 3 0 8-5 12-12zm61-5c-4-3-7 0-7 7s3 10 7 7c3-4 3-10 0-14zm-40-15c-3-8-6-5-6 6-1 11 2 17 5 13 3-3 4-12 1-19zm-23-140c7-5 5-8-6-8-14 0-18 8-17 33 2 27 2 28 6 7 3-14 10-28 17-32zm56 19c0-8-3-8-9 1-7 11-9 11-14-2-3-8-1-17 6-20 9-3 8-5-1-5-18-1-27 30-11 39 15 10 29 4 29-13zm40-8c0-21-15-25-26-7-5 7-3 8 6 3 10-6 12-3 8 13-4 12-2 20 3 16 5-3 9-14 9-25zm79 3c0-14-2-13-8 3-8 19-8 19-19 0-10-17-11-17-12-3 0 16 19 29 33 21 4-2 7-12 6-21zm90 0c-1-16-2-16-6 0-3 11-11 15-21 12-14-5-14-4-2 4 18 13 30 6 29-16zm43-14c-16-16-37 4-28 28 6 16 8 16 23 1 13-13 15-20 5-29zm78 19c0-8-3-8-9 1-7 11-9 11-14-2-3-8-1-17 6-20 9-3 9-5 0-5-19-1-26 18-13 34s30 11 30-8zm-263 6c-4-3-10-3-14 0-3 4 0 7 7 7s10-3 7-7zm90-15c-3-8-6-5-6 6-1 11 2 17 5 13 3-3 4-12 1-19zm252 19c-2-1-13-9-24-17-19-14-19-14-6 3 7 9 18 17 24 17s8-1 6-3zM383 2503c4-3 10-3 14 0 3 4 0 7-7 7s-10-3-7-7zm427 27c0-7 3-10 7-7 3 4 3 10 0 14-4 3-7 0-7-7zm80-20c0-7 3-10 7-7 3 4 3 10 0 14-4 3-7 0-7-7zm40 0c0-7 3-10 7-7 3 4 3 10 0 14-4 3-7 0-7-7zm501-1684c-8-10-8-16 1-24 19-15 40 9 22 25-9 9-15 9-23-1zm472-23c4-3 10-3 14 0 3 4 0 7-7 7s-10-3-7-7zm-353-20c0-6-6-18-13-25-11-11-11-16 3-30 15-16 16-16 26 0 7 12 6 24-3 42-7 14-13 20-13 13zm500 16c0-5 5-7 10-4 6 3 10 8 10 11 0 2-4 4-10 4-5 0-10-5-10-11zm-300-119c0-7 3-10 7-7 3 4 3 10 0 14-4 3-7 0-7-7zm70-230c0-7 3-10 7-7 3 4 3 10 0 14-4 3-7 0-7-7zm220-234c0-9 5-16 10-16 6 0 10 4 10 9 0 6-4 13-10 16-5 3-10-1-10-9zm213 2467c4-3 10-3 14 0 3 4 0 7-7 7s-10-3-7-7zm-771-43c-1-38 1-41 9-21l9 23 21-23c20-24 20-24 9-1-8 16-8 28 1 45 12 21 11 21-8 5-11-10-22-18-26-18-3 0-8 8-10 18-3 9-5-3-5-28zm478 30c0-5-9-10-20-10-16 0-20-7-20-30 0-25 4-30 25-30 23 0 25 4 25 40 0 22-2 40-5 40s-5-4-5-10zm-2-37c-5-25-28-28-28-4 0 12 6 21 16 21 9 0 14-7 12-17zm72 7c0-39 2-41 26-38 35 4 53 31 38 56-6 9-23 18-38 20-24 3-26 1-26-38zm50 0c0-23-4-30-20-30s-20 7-20 30 4 30 20 30 20-7 20-30zm77 33c-11-10-8-73 3-73 5 0 7 7 4 15-4 8-1 22 6 30s9 15 4 15-2 5 6 10c13 8 13 10-1 10-9 0-19-3-22-7zm50 0c-10-10-8-73 2-73 5 0 8 8 6 18-1 9 2 23 8 30 5 6 6 12 1 12s-2 5 6 10c13 8 13 10-1 10-9 0-19-3-22-7zm227-27c1-25 6-41 16-44 12-4 13-2 3 9-6 8-13 28-16 44-4 23-4 20-3-9zm199-6c0-25 2-35 4-22 2 12 2 32 0 45-2 12-4 2-4-23zm-161-2c2-22 9-34 21-36 9-2 17 1 17 7s-7 8-15 5c-10-4-15 0-15 15 0 13 6 21 18 21 14 0 15 2 2 10-25 16-31 11-28-22zm-916 7c-9-24 4-45 28-44 16 1 17 2 4 6-24 6-23 23 2 23 13 0 18 5 14 15-4 8-14 15-24 15s-20-7-24-15zm31-2c-4-3-10-3-14 0-3 4 0 7 7 7s10-3 7-7zm39-4c4-13 8-32 8-41 0-10 4-18 7-18 7 0 13 14 24 63 5 21 5 20-9-3-11-18-15-21-16-8 0 9-5 20-11 24-8 4-9-1-3-17zm65 9c-1-22 9-48 20-48 5 0 9 7 9 15s-4 15-9 15-12 8-14 18c-4 15-5 15-6 0zm29 3c0-6 5-13 10-16 6-3 10 1 10 9 0 9-4 16-10 16-5 0-10-4-10-9zm32-16c-14-31-15-35-3-35 8 0 23 51 17 58-2 1-8-9-14-23zm38-5c0-27 3-31 23-28 16 2 22 10 22 28s-6 26-22 28c-20 3-23-1-23-28zm35 0c0-7-6-15-12-17-8-3-13 4-13 17s5 20 13 18c6-3 12-11 12-18zm36-2c1-31 1-31 8-8 4 14 13 24 19 23 7-2 12 2 12 7 0 6-9 10-20 10-16 0-20-6-19-32zm261 2c0-19 2-27 5-17 2 9 2 25 0 35-3 9-5 1-5-18zm130 0c-1-16 2-30 8-30 5 0 10 14 10 30 0 17-4 30-8 30s-9-13-10-30zm38 5c0-28 25-44 42-27 8 8 5 9-11 5-17-4-21-1-21 17 0 17 4 21 20 17 11-3 18-1 14 4-3 5-14 9-25 9-14 0-19-7-19-25zm71-2c-1-29 2-33 24-33s25 4 24 33l-1 32-10-27c-5-16-13-28-18-28s-11 12-13 28c-4 25-4 25-6-5zm173-7c11-26 11-36 3-40-9-3-8-5 1-5 15-1 35 46 29 68-3 10-5 8-6-6-1-28-21-31-21-3 0 11-5 20-10 20-6 0-4-14 4-34zm-1254-106c0-7 3-10 7-7 3 4 3 10 0 14-4 3-7 0-7-7zm261-30c1-42 1-43 9-16 6 17 5 36 0 45-7 11-9 3-9-29zm209 5c0-38 16-54 33-35 9 10 8 12-5 7-20-7-25 22-7 40 7 7 6 12-5 16-13 5-16-1-16-28zm60 25c0-7 3-10 7-7 3 4 3 10 0 14-4 3-7 0-7-7zm27 3c-4-3-7-11-7-17s5-5 12 2c6 6 9 14 7 17-3 3-9 2-12-2zm-350-10c-13-12-7-33 8-33 8 0 15-5 15-11s-7-8-17-4c-15 5-16 4-5-6 10-11 14-11 25 0 10 10 9 15-5 25-22 16-23 30-2 22 8-3 12-2 9 4-7 12-19 13-28 3zm92-31c5-34 6-35 9-8 2 16 0 32-5 37s-7-7-4-29zm43 26c-16-16-15-33 4-48 22-19 54 12 38 37-14 22-27 26-42 11zm33-23c0-10-6-20-12-22-8-3-13 5-13 22s5 25 13 23c6-3 12-13 12-23zm48 28c-7-2-12-19-12-36l1-32 7 30c4 17 13 29 20 27 7-1 10 2 6 8-3 5-7 10-8 9-1 0-8-3-14-6zm449-690 48-4-35-69c-37-73-41-85-26-76 13 9 71 123 71 141 0 12-11 15-52 13l-53-2 47-3zm-681-538c-1-6 8-18 19-28 17-14 20-14 20-2 0 8-6 15-14 15s-17 6-19 13c-3 6-6 7-6 2zm59-20c0-17 5-25 18-25s14 2 3 9c-7 5-9 10-3 12s4 9-4 17c-12 11-14 9-14-13zm51 0c0-16 3-24 6-17 3 8 9 10 16 3 9-6 12-2 14 16 1 19-1 22-8 12-8-12-10-12-19 1-7 12-10 8-9-15zm82 10c0-8 4-12 9-9s6 10 3 15c-9 13-12 11-12-6zm51-6c-10-17 13-36 27-22 12 12 4 33-11 33-5 0-12-5-16-11zm26-9c0-5-4-10-10-10-5 0-10 5-10 10 0 6 5 10 10 10 6 0 10-4 10-10zm27 2c1-8 3-16 3-18 0-3 5-2 10 1 6 3 10 11 10 16 0 6-4 8-9 5-5-4-11-3-14 1-2 5-2 2 0-5zm45-2c0-14 2-19 5-12 2 6 2 18 0 25-3 6-5 1-5-13zm18 10c0-7 3-10 7-7 3 4 3 10 0 14-4 3-7 0-7-7zm33 3c4-3 10-3 14 0 3 4 0 7-7 7s-10-3-7-7zm57-3c0-7 3-10 7-7 3 4 3 10 0 14-4 3-7 0-7-7zm22-10c0-14 2-19 5-12 2 6 2 18 0 25-3 6-5 1-5-13zm30 0c0-14 2-19 5-12 2 6 2 18 0 25-3 6-5 1-5-13zm18 10c0-7 3-10 7-7 3 4 3 10 0 14-4 3-7 0-7-7zm50 5c0-5 4-16 9-23 6-11 10-10 15 4 3 9 4 19 1 22s-5-1-5-9c0-11-2-11-10 1-5 8-10 11-10 5zm-140-25c0-5 5-10 11-10 5 0 7 5 4 10-3 6-8 10-11 10-2 0-4-4-4-10zm120 0c0-7 3-10 7-7 3 4 3 10 0 14-4 3-7 0-7-7zm600-800c0-5 5-10 10-10 6 0 10 5 10 10 0 6-4 10-10 10-5 0-10-4-10-10z"/></g></svg><svg xmlns="http://www.w3.org/2000/svg" width="2550" height="3300" version="1.0" viewBox="0 0 2550 3300"><g fill="#342330" transform="matrix(.9659 0 0 -.96774 0 3300)"><path d="M320 3090c0-7 288-10 845-10s845 3 845 10-288 10-845 10-845-3-845-10zm2075 0c4-6 57-10 126-10 73 0 119 4 119 10s-49 10-126 10c-81 0-123-4-119-10zm-1590-55c-33-32-31-60 4-96l29-29h1802v28c0 28-1 29-50 26-41-2-50 1-51 14 0 15-1 15-7 2s-28-16-125-15c-65 0-121-3-123-7-9-15-25-8-34 15-6 16-9 17-9 5-1-14-11-17-63-16-35 0-75 4-90 9-19 5-28 3-32-7-3-8-10-14-15-14-6 0-8 6-5 14s0 17-6 21c-6 3-9 1-8-7 2-10-18-13-84-14-60-1-88 2-88 10 0 6-5 4-10-4-9-13-11-13-20 0-8 13-10 13-10-2 0-25-40-19-41 7 0 15-2 16-7 5-6-12-29-15-109-17-57-1-103 1-103 6 0 4-7 8-15 8s-15-3-15-7-31-7-70-7c-39 1-70 6-70 11s-7 1-15-10c-8-10-15-14-15-8 0 11-60 12-78 0-6-3-13-3-15 2-3 4-62 7-131 5-109-1-125 1-129 15-4 15-5 15-6 0-1-17-31-25-44-12-9 10 4 34 19 34 8 0 14 5 14 11 0 8 4 8 14-1 16-13 64-11 84 3 7 6 12 5 12-2 0-6 6-11 14-11s17-6 19-12c4-10 8-10 15 0s27 13 71 10c45-2 62 1 66 11s8 11 20 1c18-15 193-14 212 1 10 9 13 8 13-5 0-19 13-20 43-4 25 14 97 21 97 9 0-4 16-8 35-9 19-2 35 2 35 7 0 7 9 6 26-1 18-8 30-9 42-1 10 5 26 7 37 2 11-4 37-8 58-8 22-1 37-6 37-13 0-9 3-9 9 1 7 11 34 13 116 12 59-1 112-4 118-8 6-3 7-1 3 5-3 6-2 13 3 16 5 4 13 1 17-5 4-8 9-7 15 2 7 11 11 11 17 2 10-16 171-16 190-1 8 7 12 7 12-1 0-7 22-11 60-11s60 4 60 11c0 8 5 8 15-1 8-7 15-10 15-7s14 2 30-3c29-8 30-8 30 26v34H829l-24-25zm87-12c18-17 26-59 8-48-6 4-7-1-3-11 5-14 3-16-11-11-11 4-15 3-10-4 4-7-4-9-21-7-35 4-50 27-41 62 5 19 11 26 22 22 9-3 12-1 9 4-10 17 27 11 47-7zm-29-10c4-3 10-3 14 0 3 4 0 7-7 7s-10-3-7-7zm-200 10c4-3 10-3 14 0 3 4 0 7-7 7s-10-3-7-7zm-33-33c0-7 3-10 7-7 3 4 3 10 0 14-4 3-7 0-7-7zm30 0c0-7 3-10 7-7 3 4 3 10 0 14-4 3-7 0-7-7zm1013-7c4-3 10-3 14 0 3 4 0 7-7 7s-10-3-7-7zm190 0c4-3 10-3 14 0 3 4 0 7-7 7s-10-3-7-7zm-235-90c189-2 495-2 680 0 185 1 31 2-343 2s-526-1-337-2zm-825-181-483-2V380h970v1054c0 693-3 1057-10 1061-13 8-13 42 0 47 7 2 10 36 8 88l-3 85-482-3zm-361-153c2-7 29-12 68-11 39 0 68-5 72-11 5-7 8-3 8 11 0 15 6 22 20 22 11 0 20-4 20-10 0-5 11-10 24-10 21 0 24-4 23-32-2-26-6-33-22-33-13 0-21 8-23 23-4 27-22 30-22 3 0-28-20-37-21-9v23l-10-23c-11-29-43-26-47 6-2 12-9 22-17 22s-11-7-8-19c3-10 0-22-6-25-7-5-12 3-12 21-2 23-2 24-6 6-5-28-23-30-23-3 0 11-4 20-10 20-5 0-10-12-10-26s-4-23-10-19c-13 8-13 85-1 85 5 0 11-5 13-11zm-32-39c0-25-4-30-25-30-16 0-25 6-25 15 0 8 4 15 10 15 5 0 7 7 4 15-4 10 0 15 15 15 17 0 21-6 21-30zm424 22c3-5 19-8 36-7s33-2 36-7c3-4 15-2 26 6 17 13 23 13 34 1 8-7 14-20 15-27 0-7 4-4 9 7 8 19 9 19 9-1 1-19-5-22-36-22-21 0-41 5-45 11-6 9-8 9-8 0 0-18-29-16-36 2-8 21-24 19-25-2 0-16-1-16-8 1s-8 17-23 2c-9-9-19-16-22-16-8 0-7 45 1 53 9 10 31 9 37-1zm206-12c0-5-4-10-10-10-5 0-10-5-10-11 0-5 5-7 10-4 6 3 10 1 10-4 0-6-4-11-9-11-15 0-24 19-17 35 6 17 26 20 26 5zm27-4c-3-7 0-19 6-25 8-8 7-11-6-11-11 0-17 8-17 25 0 14 5 25 11 25s9-6 6-14zm75-18c-9-9-15-9-24 0s-7 12 12 12 21-3 12-12zm-759-5c4-3 10-3 14 0 3 4 0 7-7 7s-10-3-7-7zm427 27c0-7 3-10 7-7 3 4 3 10 0 14-4 3-7 0-7-7zm80-20c0-7 3-10 7-7 3 4 3 10 0 14-4 3-7 0-7-7zm40 0c0-7 3-10 7-7 3 4 3 10 0 14-4 3-7 0-7-7zm1323 173c4-3 10-3 14 0 3 4 0 7-7 7s-10-3-7-7zm-771-43c-1-38 1-41 9-21l9 23 21-23c20-24 20-24 9-1-8 16-8 28 1 45 12 21 11 21-8 5-11-10-22-18-26-18-3 0-8 8-10 18-3 9-5-3-5-28zm478 30c0-5-9-10-20-10-16 0-20-7-20-30 0-25 4-30 25-30 23 0 25 4 25 40 0 22-2 40-5 40s-5-4-5-10zm-2-37c-5-25-28-28-28-4 0 12 6 21 16 21 9 0 14-7 12-17zm72 7c0-39 2-41 26-38 35 4 53 31 38 56-6 9-23 18-38 20-24 3-26 1-26-38zm50 0c0-23-4-30-20-30s-20 7-20 30 4 30 20 30 20-7 20-30zm77 33c-11-10-8-73 3-73 5 0 7 7 4 15-4 8-1 22 6 30s9 15 4 15-2 5 6 10c13 8 13 10-1 10-9 0-19-3-22-7zm50 0c-10-10-8-73 2-73 5 0 8 8 6 18-1 9 2 23 8 30 5 6 6 12 1 12s-2 5 6 10c13 8 13 10-1 10-9 0-19-3-22-7zm227-27c1-25 6-41 16-44 12-4 13-2 3 9-6 8-13 28-16 44-4 23-4 20-3-9zm199-6c0-25 2-35 4-22 2 12 2 32 0 45-2 12-4 2-4-23zm-161-2c2-22 9-34 21-36 9-2 17 1 17 7s-7 8-15 5c-10-4-15 0-15 15 0 13 6 21 18 21 14 0 15 2 2 10-25 16-31 11-28-22zm-916 7c-9-24 4-45 28-44 16 1 17 2 4 6-24 6-23 23 2 23 13 0 18 5 14 15-4 8-14 15-24 15s-20-7-24-15zm31-2c-4-3-10-3-14 0-3 4 0 7 7 7s10-3 7-7zm39-4c4-13 8-32 8-41 0-10 4-18 7-18 7 0 13 14 24 63 5 21 5 20-9-3-11-18-15-21-16-8 0 9-5 20-11 24-8 4-9-1-3-17zm65 9c-1-22 9-48 20-48 5 0 9 7 9 15s-4 15-9 15-12 8-14 18c-4 15-5 15-6 0zm29 3c0-6 5-13 10-16 6-3 10 1 10 9 0 9-4 16-10 16-5 0-10-4-10-9zm32-16c-14-31-15-35-3-35 8 0 23 51 17 58-2 1-8-9-14-23zm38-5c0-27 3-31 23-28 16 2 22 10 22 28s-6 26-22 28c-20 3-23-1-23-28zm35 0c0-7-6-15-12-17-8-3-13 4-13 17s5 20 13 18c6-3 12-11 12-18zm36-2c1-31 1-31 8-8 4 14 13 24 19 23 7-2 12 2 12 7 0 6-9 10-20 10-16 0-20-6-19-32zm261 2c0-19 2-27 5-17 2 9 2 25 0 35-3 9-5 1-5-18zm130 0c-1-16 2-30 8-30 5 0 10 14 10 30 0 17-4 30-8 30s-9-13-10-30zm38 5c0-28 25-44 42-27 8 8 5 9-11 5-17-4-21-1-21 17 0 17 4 21 20 17 11-3 18-1 14 4-3 5-14 9-25 9-14 0-19-7-19-25zm71-2c-1-29 2-33 24-33s25 4 24 33l-1 32-10-27c-5-16-13-28-18-28s-11 12-13 28c-4 25-4 25-6-5zm173-7c11-26 11-36 3-40-9-3-8-5 1-5 15-1 35 46 29 68-3 10-5 8-6-6-1-28-21-31-21-3 0 11-5 20-10 20-6 0-4-14 4-34zm-1254-106c0-7 3-10 7-7 3 4 3 10 0 14-4 3-7 0-7-7zm261-30c1-42 1-43 9-16 6 17 5 36 0 45-7 11-9 3-9-29zm209 5c0-38 16-54 33-35 9 10 8 12-5 7-20-7-25 22-7 40 7 7 6 12-5 16-13 5-16-1-16-28zm60 25c0-7 3-10 7-7 3 4 3 10 0 14-4 3-7 0-7-7zm27 3c-4-3-7-11-7-17s5-5 12 2c6 6 9 14 7 17-3 3-9 2-12-2zm-350-10c-13-12-7-33 8-33 8 0 15-5 15-11s-7-8-17-4c-15 5-16 4-5-6 10-11 14-11 25 0 10 10 9 15-5 25-22 16-23 30-2 22 8-3 12-2 9 4-7 12-19 13-28 3zm92-31c5-34 6-35 9-8 2 16 0 32-5 37s-7-7-4-29zm43 26c-16-16-15-33 4-48 22-19 54 12 38 37-14 22-27 26-42 11zm33-23c0-10-6-20-12-22-8-3-13 5-13 22s5 25 13 23c6-3 12-13 12-23zm48 28c-7-2-12-19-12-36l1-32 7 30c4 17 13 29 20 27 7-1 10 2 6 8-3 5-7 10-8 9-1 0-8-3-14-6zm449-690 48-4-35-69c-37-73-41-85-26-76 13 9 71 123 71 141 0 12-11 15-52 13l-53-2 47-3zm-681-538c-1-6 8-18 19-28 17-14 20-14 20-2 0 8-6 15-14 15s-17 6-19 13c-3 6-6 7-6 2zm59-20c0-17 5-25 18-25s14 2 3 9c-7 5-9 10-3 12s4 9-4 17c-12 11-14 9-14-13zm51 0c0-16 3-24 6-17 3 8 9 10 16 3 9-6 12-2 14 16 1 19-1 22-8 12-8-12-10-12-19 1-7 12-10 8-9-15zm82 10c0-8 4-12 9-9s6 10 3 15c-9 13-12 11-12-6zm51-6c-10-17 13-36 27-22 12 12 4 33-11 33-5 0-12-5-16-11zm26-9c0-5-4-10-10-10-5 0-10 5-10 10 0 6 5 10 10 10 6 0 10-4 10-10zm27 2c1-8 3-16 3-18 0-3 5-2 10 1 6 3 10 11 10 16 0 6-4 8-9 5-5-4-11-3-14 1-2 5-2 2 0-5zm45-2c0-14 2-19 5-12 2 6 2 18 0 25-3 6-5 1-5-13zm18 10c0-7 3-10 7-7 3 4 3 10 0 14-4 3-7 0-7-7zm33 3c4-3 10-3 14 0 3 4 0 7-7 7s-10-3-7-7zm57-3c0-7 3-10 7-7 3 4 3 10 0 14-4 3-7 0-7-7zm22-10c0-14 2-19 5-12 2 6 2 18 0 25-3 6-5 1-5-13zm30 0c0-14 2-19 5-12 2 6 2 18 0 25-3 6-5 1-5-13zm18 10c0-7 3-10 7-7 3 4 3 10 0 14-4 3-7 0-7-7zm50 5c0-5 4-16 9-23 6-11 10-10 15 4 3 9 4 19 1 22s-5-1-5-9c0-11-2-11-10 1-5 8-10 11-10 5zm-140-25c0-5 5-10 11-10 5 0 7 5 4 10-3 6-8 10-11 10-2 0-4-4-4-10zm120 0c0-7 3-10 7-7 3 4 3 10 0 14-4 3-7 0-7-7z"/></g></svg><svg xmlns="http://www.w3.org/2000/svg" width="2550" height="3300" version="1.0" viewBox="0 0 2550 3300"><g fill="#1a2231" transform="matrix(.9659 0 0 -.96774 0 3300)"><path d="M1153 2953c4-3 10-3 14 0 3 4 0 7-7 7s-10-3-7-7zM320 1545V380h970v1050c0 819-3 1055-12 1070-10 16-10 24 0 40 7 11 12 52 12 95v75H320V1545zm122 1014c2-7 29-12 68-11 39 0 68-5 72-11 5-7 8-3 8 11 0 15 6 22 20 22 11 0 20-4 20-10 0-5 11-10 24-10 21 0 24-4 23-32-2-26-6-33-22-33-13 0-21 8-23 23-5 30-22 28-22-3s-20-33-21-2v22l-9-22c-5-13-16-23-24-23-17 0-39 34-29 44 3 3 1 6-5 6s-12-10-14-22c-2-13-12-22-25-24-19-3-23 1-23 21 0 14-4 25-10 25-5 0-10-11-10-24 0-21-4-23-37-22-35 1-38 3-40 34-1 29 1 32 28 32 16 0 29 5 29 10 0 14 17 13 22-1zm440-21c10 0 20-4 24-9 4-6 14-3 26 7 16 16 21 16 28 4 6-8 10-10 11-5 0 6 5-1 9-15 7-21 8-22 9-5s9 20 47 22c38 1 44-1 33-13-8-10-8-14 0-14 6 0 11-4 11-9 0-4-45-8-101-8-76 0-102 3-106 13-7 20-23 17-24-3 0-16-1-16-8 1s-8 17-23 2c-23-23-28-20-28 15 0 31 1 31 38 24 20-4 45-8 54-7zm265-23c-2-5-10-10-17-10s-15 5-17 10c-2 6 6 11 17 11s19-5 17-11zm-257-5c0-7 3-10 7-7 3 4 3 10 0 14-4 3-7 0-7-7zm40 0c0-7 3-10 7-7 3 4 3 10 0 14-4 3-7 0-7-7zm98 3c7-3 16-2 19 1 4 3-2 6-13 5-11 0-14-3-6-6zm453 130c-1-24 1-43 3-43 8 0 12 48 5 66-5 13-8 7-8-23zm41 25c-16-16-15-30 4-54 14-18 15-18 4 4-8 16-8 28 0 42 12 23 9 25-8 8zm438 2c0-5-9-10-21-10-16 0-20-5-17-27 2-14 9-28 16-29s8 0 2 3c-15 7-12 43 4 43 8 0 17-12 19-27 3-20 4-15 6 15 0 23-1 42-4 42s-5-4-5-10zm70-30c0-36 3-40 25-40 31 0 50 32 35 60-6 12-21 20-35 20-22 0-25-4-25-40zm50 0c0-23-4-30-20-30s-20 7-20 30 4 30 20 30 20-7 20-30zm78 33c-2-5-4-21-5-38 0-20 1-23 4-7 2 12 8 22 12 22s8 7 8 15c0 16-13 21-19 8zm46-28c-3-20-4-39 0-42 3-4 6 6 6 20 0 15 4 27 8 27 5 0 9 7 9 15 0 29-16 15-23-20zm230 1c1-26 6-41 16-43 10-3 11-2 3 4-6 4-13 24-16 43-4 34-4 33-3-4zm199-6c0-25 2-35 4-22 2 12 2 32 0 45-2 12-4 2-4-23zm-161-2c2-22 9-34 21-36 9-2 17 1 17 7s-7 8-15 5c-10-4-15 0-15 15 0 13 6 21 18 21 14 0 15 2 2 10-25 16-31 11-28-22zm-916 7c-9-24 4-45 28-44 16 1 17 2 4 6-22 5-24 23-3 23 8 0 15 7 15 15s-9 15-19 15-21-7-25-15zm31-2c-4-3-10-3-14 0-3 4 0 7 7 7s10-3 7-7zm40-3c4-14 7-33 7-42 0-10 4-18 7-18 10 0 22 40 15 47-3 4-6 0-6-8-1-8-7 0-15 16-12 24-13 25-8 5zm33 10c0-7 3-10 7-7 3 4 3 10 0 14-4 3-7 0-7-7zm31-6c0-11 3-14 6-6 3 7 2 16-1 19-3 4-6-2-5-13zm29 7c0-6 5-13 10-16 6-3 10 1 10 9 0 9-4 16-10 16-5 0-10-4-10-9zm40-1c0-7 3-10 7-7 3 4 3 10 0 14-4 3-7 0-7-7zm32-17c2-20 8-28 23-28 31 0 28 49-3 53-20 3-23 0-20-25zm38-3c0-11-7-20-15-20s-15 9-15 20 7 20 15 20 15-9 15-20zm31-2c2-32 2-32 6-5 3 20 9 27 19 23 8-3 14-1 14 4 0 6-9 10-20 10-16 0-20-6-19-32zm261 2c0-19 2-27 5-17 2 9 2 25 0 35-3 9-5 1-5-18zm140 0c0-19 2-27 5-17 2 9 2 25 0 35-3 9-5 1-5-18zm32 15c-13-32 23-63 40-36 4 5-3 7-14 4-16-4-20 0-20 17s4 21 20 17c11-3 18-1 14 4-8 14-34 11-40-6zm67-12c-1-29 2-33 24-31 21 2 25 7 24 33-1 28-1 28-8 6-9-35-29-37-34-4-4 27-4 27-6-4zm173-7c11-26 11-36 3-40-9-3-8-5 1-5 15-1 35 46 29 68-3 10-5 8-6-6-1-28-21-31-21-3 0 11-5 20-10 20-6 0-4-14 4-34zm-828-5c-4-7-5-15-2-18 9-9 19 4 14 18-4 11-6 11-12 0zm40 0c-4-7-5-15-2-18 9-9 19 4 14 18-4 11-6 11-12 0zm-466-101c0-7 3-10 7-7 3 4 3 10 0 14-4 3-7 0-7-7zm260-22c0-21 2-38 4-38 9 0 12 50 5 62-6 8-9-1-9-24zm210-2c0-38 15-55 33-37 9 9 8 10-7 5-16-6-18-3-14 25 3 17 1 34-4 37-4 3-8-11-8-30zm60 24c0-7 3-10 7-7 3 4 3 10 0 14-4 3-7 0-7-7zm-323-7c-13-12-7-33 8-33 8 0 15-5 15-11s-7-8-17-4c-15 5-16 4-5-6 10-11 14-11 25 0 10 10 8 15-7 26-10 8-15 18-11 24 7 12 2 15-8 4zm95-28c0-16 2-22 5-12 2 9 2 23 0 30-3 6-5-1-5-18zm36 13c-4-9-1-24 7-34 11-15 15-16 29-5 17 14 21 37 8 45-5 3-8-4-8-16 1-32-22-33-26-1-2 21-5 24-10 11zm72-13c0-14 2-25 4-25s6 11 8 25c3 14 1 25-3 25-5 0-9-11-9-25zm463-662c26-2 47-7 47-10 0-4-16-35-35-71-20-35-34-67-31-69 5-6 76 131 76 147 0 6-22 9-52 8l-53-2 48-3zm-547-550c-4-9-3-20 1-24s9 3 9 17c2 28-1 31-10 7zm57 2c0-8 4-12 9-9s6 10 3 15c-9 13-12 11-12-6zm200-2c4-3 10-3 14 0 3 4 0 7-7 7s-10-3-7-7zm107-3c0-7 3-10 7-7 3 4 3 10 0 14-4 3-7 0-7-7zm70 5c0-5 5-17 10-25s10-10 10-5c0 6-5 17-10 25s-10 11-10 5zm-459-21c0-11 3-14 6-6 3 7 2 16-1 19-3 4-6-2-5-13zm129 7c0-6 4-13 10-16s7 1 4 9c-7 18-14 21-14 7zm30-1c0-7 3-10 7-7 3 4 3 10 0 14-4 3-7 0-7-7zm280-10c0-7 3-10 7-7 3 4 3 10 0 14-4 3-7 0-7-7z"/></g></svg></g></svg>